<svg version="1.1" id="Layer_1" xmlns="http://www.w3.org/2000/svg" xmlns:xlink="http://www.w3.org/1999/xlink" x="0px" y="0px"
	 width="100%" viewBox="0 0 512 512" enable-background="new 0 0 512 512" xml:space="preserve">
<path fill="#F3F2F2" opacity="1.000000" stroke="none" 
	d="
M289.000000,513.000000 
	C267.979095,513.000000 246.958206,513.000000 225.780579,512.638123 
	C224.784576,511.851959 223.988937,511.225464 223.099564,511.033661 
	C209.252518,508.048035 195.250244,505.660156 181.571701,502.044983 
	C162.706512,497.058990 145.053680,488.887665 128.245605,479.003113 
	C111.561157,469.191284 95.859543,458.016907 81.954857,444.457153 
	C70.405037,433.193909 59.299042,421.581055 49.813694,408.427368 
	C35.711006,388.870636 24.103577,368.024353 16.035978,345.302795 
	C9.716989,327.506012 4.431740,309.418823 2.903720,290.445282 
	C2.861082,289.915833 1.660588,289.479675 0.999999,289.000000 
	C1.000000,267.645782 1.000000,246.291550 1.360439,224.775299 
	C2.146075,223.773926 2.770081,222.978470 2.966670,222.088608 
	C5.950894,208.579971 8.330572,194.910126 11.948798,181.575684 
	C17.398888,161.490204 26.214579,142.778046 36.965115,124.935814 
	C51.362564,101.040962 69.285172,80.229958 90.393410,62.041382 
	C109.605057,45.487064 130.723083,32.059757 154.001129,21.978657 
	C176.136993,12.392200 198.997253,5.535608 223.053192,2.922236 
	C223.763351,2.845086 224.353760,1.665552 225.000000,1.000002 
	C246.020889,1.000000 267.041779,1.000000 288.219421,1.362533 
	C289.215729,2.148854 290.011810,2.774487 290.901398,2.966220 
	C304.746155,5.950220 318.749542,8.325775 332.421539,11.952876 
	C351.276825,16.955069 368.962555,25.032177 385.748657,34.982952 
	C402.405396,44.857025 418.140808,55.987316 432.053040,69.549965 
	C443.603149,80.809799 454.683563,92.440170 464.191406,105.572311 
	C478.338257,125.111839 489.826019,146.027908 497.955811,168.712662 
	C504.325836,186.487152 509.566864,204.585922 511.096191,223.555374 
	C511.138855,224.084641 512.339355,224.520554 513.000000,225.000000 
	C513.000000,246.020889 513.000000,267.041779 512.637512,288.219299 
	C511.851166,289.215576 511.225403,290.011658 511.033691,290.901306 
	C508.050781,304.744720 505.705841,318.756378 502.040619,332.414368 
	C497.198029,350.459747 489.449524,367.370026 480.151459,383.642517 
	C471.201691,399.305481 461.217560,414.277313 448.862335,427.282837 
	C437.314789,439.438263 424.881866,450.927734 411.791534,461.401672 
	C391.712646,477.467316 369.186920,489.530640 344.827332,498.061859 
	C327.131683,504.259308 309.236633,509.493317 290.445251,511.095856 
	C289.913239,511.141205 289.479523,512.339355 289.000000,513.000000 
M358.694885,237.156677 
	C370.195953,258.738983 381.738586,280.299500 393.090637,301.959900 
	C393.744110,303.206787 393.307587,305.501770 392.592957,306.910583 
	C388.302277,315.369568 383.773926,323.707855 379.344910,332.096954 
	C378.472595,333.749237 377.686401,335.446960 376.559631,337.734528 
	C383.246826,337.734528 388.912994,337.520599 394.552612,337.815247 
	C397.902313,337.990295 399.558594,336.762238 401.044250,333.823029 
	C420.038147,296.246124 439.167450,258.737701 458.248444,221.204803 
	C458.965118,219.795074 459.539825,218.313187 460.494995,216.154678 
	C454.242554,216.154678 448.774963,215.878967 443.362976,216.306808 
	C441.511353,216.453186 439.069550,217.945099 438.153595,219.542542 
	C434.765167,225.452042 431.906097,231.664719 428.839813,237.759277 
	C421.144409,253.054855 413.444458,268.348114 405.496460,284.138733 
	C404.400208,282.027985 403.544678,280.427185 402.730316,278.805695 
	C392.946136,259.324829 383.189728,239.829941 373.346619,220.378922 
	C372.572083,218.848343 371.264313,216.492828 370.103790,216.431747 
	C363.073486,216.061813 356.013977,216.247467 348.517914,216.247467 
	C349.563232,219.052048 350.301758,221.033447 350.371277,223.391617 
	C338.256287,213.752579 323.898773,212.430695 309.259247,212.606583 
	C300.179352,212.715683 291.380188,214.539978 283.479889,219.367340 
	C275.966309,223.958405 271.588287,230.577179 270.366486,239.837967 
	C276.854248,239.837967 282.836365,239.986771 288.799103,239.713242 
	C290.001129,239.658096 291.633881,238.242081 292.205414,237.042480 
	C294.780792,231.637161 299.083221,227.923386 304.700989,227.321854 
	C311.520630,226.591660 318.701172,226.402512 325.368164,227.749023 
	C335.020569,229.698486 339.586700,238.031082 338.047821,248.830048 
	C336.207520,248.830048 334.251068,248.775467 332.298462,248.839050 
	C320.826019,249.212570 309.283569,248.955536 297.901611,250.181686 
	C285.311951,251.537949 273.326904,255.127640 265.830200,265.836517 
	C266.720734,253.549622 264.918915,241.919540 257.442932,231.692551 
	C241.833282,210.338882 207.038300,206.386826 186.430176,223.612579 
	C185.243286,224.604675 184.017349,225.550034 182.020752,227.148773 
	C182.020752,210.048370 182.020752,194.001236 182.020752,178.013062 
	C175.139618,178.013062 168.751389,178.013062 162.140045,178.013062 
	C162.140045,180.578033 162.141281,182.733597 162.139862,184.889160 
	C162.125397,206.707565 162.110504,228.525955 161.644867,249.481552 
	C157.653442,231.073746 147.333893,218.416824 128.358566,214.631195 
	C121.107117,213.184509 113.442886,212.816910 106.046982,213.269226 
	C83.506683,214.647751 68.219627,226.300781 63.620411,246.091766 
	C61.884159,253.563065 61.343700,261.740173 62.324795,269.328339 
	C64.554596,286.574432 74.011726,298.885437 91.055031,304.136566 
	C106.434113,308.874969 121.917534,308.391907 137.181412,303.268372 
	C144.128250,300.936554 150.145172,296.990906 154.313339,290.922241 
	C156.645325,287.526917 158.056656,283.499268 160.307739,278.885712 
	C152.819763,278.885712 146.846436,278.817902 140.877838,278.955475 
	C139.932007,278.977264 138.556259,279.688263 138.140869,280.480164 
	C131.920242,292.338531 121.205666,294.601257 109.284645,293.899719 
	C94.078255,293.004883 82.419449,280.680145 82.387878,265.306244 
	C84.333771,265.306244 86.284157,265.312408 88.234489,265.305298 
	C112.871239,265.215179 137.507980,265.123169 162.341049,265.948547 
	C162.341049,278.532990 162.341049,291.117432 162.341049,303.915741 
	C168.494705,303.915741 174.590637,303.915741 181.029877,303.915741 
	C181.455704,300.369324 181.868332,296.933044 182.333496,293.059113 
	C195.065018,306.512939 210.559418,308.741638 226.991608,306.481049 
	C245.223434,303.972839 257.449829,293.480133 264.019348,277.236237 
	C264.647186,291.723663 271.271423,300.965179 285.699554,304.673798 
	C305.416809,309.741943 324.311035,308.855591 339.791870,292.376099 
	C340.268219,296.440247 340.686249,300.006836 341.104919,303.579041 
	C347.229370,303.579041 353.098419,303.579041 358.068359,303.579041 
	C358.068359,281.049835 358.068359,258.950378 358.694885,237.156677 
M474.180145,217.714584 
	C473.736908,219.104919 473.293671,220.495255 472.850433,221.885590 
	C473.232635,222.013916 473.614868,222.142242 473.997101,222.270584 
	C474.627289,221.173874 475.257477,220.077164 476.163788,218.499924 
	C476.756897,220.250519 477.123108,221.331329 477.640076,222.857132 
	C478.604156,221.178757 479.233307,220.083466 480.157959,218.473770 
	C480.738373,220.273483 481.089417,221.362015 481.626984,223.029007 
	C482.968048,218.235931 482.750244,217.806000 479.410187,217.708328 
	C477.942993,217.665421 476.473328,217.708527 474.180145,217.714584 
z"/>
<path fill="#000000" opacity="1.000000" stroke="none" 
	d="
M0.999999,289.468658 
	C1.660588,289.479675 2.861082,289.915833 2.903720,290.445282 
	C4.431740,309.418823 9.716989,327.506012 16.035978,345.302795 
	C24.103577,368.024353 35.711006,388.870636 49.813694,408.427368 
	C59.299042,421.581055 70.405037,433.193909 81.954857,444.457153 
	C95.859543,458.016907 111.561157,469.191284 128.245605,479.003113 
	C145.053680,488.887665 162.706512,497.058990 181.571701,502.044983 
	C195.250244,505.660156 209.252518,508.048035 223.099564,511.033661 
	C223.988937,511.225464 224.784576,511.851959 225.311920,512.638123 
	C150.406296,513.000000 75.812599,513.000000 1.000000,513.000000 
	C1.000000,438.645905 1.000000,364.291626 0.999999,289.468658 
z"/>
<path fill="#000000" opacity="1.000000" stroke="none" 
	d="
M513.000000,224.531342 
	C512.339355,224.520554 511.138855,224.084641 511.096191,223.555374 
	C509.566864,204.585922 504.325836,186.487152 497.955811,168.712662 
	C489.826019,146.027908 478.338257,125.111839 464.191406,105.572311 
	C454.683563,92.440170 443.603149,80.809799 432.053040,69.549965 
	C418.140808,55.987316 402.405396,44.857025 385.748657,34.982952 
	C368.962555,25.032177 351.276825,16.955069 332.421539,11.952876 
	C318.749542,8.325775 304.746155,5.950220 290.901398,2.966220 
	C290.011810,2.774487 289.215729,2.148854 288.688080,1.362533 
	C363.593719,1.000000 438.187408,1.000000 513.000000,1.000000 
	C513.000000,75.354088 513.000000,149.708389 513.000000,224.531342 
z"/>
<path fill="#000000" opacity="1.000000" stroke="none" 
	d="
M289.468628,513.000000 
	C289.479523,512.339355 289.913239,511.141205 290.445251,511.095856 
	C309.236633,509.493317 327.131683,504.259308 344.827332,498.061859 
	C369.186920,489.530640 391.712646,477.467316 411.791534,461.401672 
	C424.881866,450.927734 437.314789,439.438263 448.862335,427.282837 
	C461.217560,414.277313 471.201691,399.305481 480.151459,383.642517 
	C489.449524,367.370026 497.198029,350.459747 502.040619,332.414368 
	C505.705841,318.756378 508.050781,304.744720 511.033691,290.901306 
	C511.225403,290.011658 511.851166,289.215576 512.637512,288.687988 
	C513.000000,363.593719 513.000000,438.187408 513.000000,513.000000 
	C438.645905,513.000000 364.291626,513.000000 289.468628,513.000000 
z"/>
<path fill="#000000" opacity="1.000000" stroke="none" 
	d="
M224.531342,1.000002 
	C224.353760,1.665552 223.763351,2.845086 223.053192,2.922236 
	C198.997253,5.535608 176.136993,12.392200 154.001129,21.978657 
	C130.723083,32.059757 109.605057,45.487064 90.393410,62.041382 
	C69.285172,80.229958 51.362564,101.040962 36.965115,124.935814 
	C26.214579,142.778046 17.398888,161.490204 11.948798,181.575684 
	C8.330572,194.910126 5.950894,208.579971 2.966670,222.088608 
	C2.770081,222.978470 2.146075,223.773926 1.360439,224.306641 
	C1.000000,149.739456 1.000000,75.478920 1.000000,1.000000 
	C75.354088,1.000000 149.708389,1.000000 224.531342,1.000002 
z"/>
<path fill="#086AB3" opacity="1.000000" stroke="none" 
	d="
M162.095749,250.344360 
	C162.110504,228.525955 162.125397,206.707565 162.139862,184.889160 
	C162.141281,182.733597 162.140045,180.578033 162.140045,178.013062 
	C168.751389,178.013062 175.139618,178.013062 182.020752,178.013062 
	C182.020752,194.001236 182.020752,210.048370 182.020752,227.148773 
	C184.017349,225.550034 185.243286,224.604675 186.430176,223.612579 
	C207.038300,206.386826 241.833282,210.338882 257.442932,231.692551 
	C264.918915,241.919540 266.720734,253.549622 265.760010,266.637451 
	C265.098114,270.381226 264.506439,273.324097 263.914764,276.266968 
	C257.449829,293.480133 245.223434,303.972839 226.991608,306.481049 
	C210.559418,308.741638 195.065018,306.512939 182.333496,293.059113 
	C181.868332,296.933044 181.455704,300.369324 181.029877,303.915741 
	C174.590637,303.915741 168.494705,303.915741 162.341049,303.915741 
	C162.341049,291.117432 162.341049,278.532990 162.297577,265.026917 
	C162.201309,259.518341 162.148529,254.931351 162.095749,250.344360 
M210.027527,293.578217 
	C227.737701,294.552582 239.193893,286.564270 243.460114,270.184601 
	C246.091797,260.080658 244.768204,250.364532 240.101593,241.122070 
	C236.809540,234.601959 231.691635,230.094742 224.594604,227.929199 
	C201.801590,220.974243 181.219940,237.057968 182.446762,260.897705 
	C183.421188,279.832886 192.719467,291.151550 210.027527,293.578217 
z"/>
<path fill="#F7AC1E" opacity="1.000000" stroke="none" 
	d="
M263.967041,276.751587 
	C264.506439,273.324097 265.098114,270.381226 265.792969,267.158081 
	C273.326904,255.127640 285.311951,251.537949 297.901611,250.181686 
	C309.283569,248.955536 320.826019,249.212570 332.298462,248.839050 
	C334.251068,248.775467 336.207520,248.830048 338.047821,248.830048 
	C339.586700,238.031082 335.020569,229.698486 325.368164,227.749023 
	C318.701172,226.402512 311.520630,226.591660 304.700989,227.321854 
	C299.083221,227.923386 294.780792,231.637161 292.205414,237.042480 
	C291.633881,238.242081 290.001129,239.658096 288.799103,239.713242 
	C282.836365,239.986771 276.854248,239.837967 270.366486,239.837967 
	C271.588287,230.577179 275.966309,223.958405 283.479889,219.367340 
	C291.380188,214.539978 300.179352,212.715683 309.259247,212.606583 
	C323.898773,212.430695 338.256287,213.752579 350.695892,223.176483 
	C351.020508,222.961349 350.962555,222.963089 350.752747,223.243301 
	C351.019623,223.966354 351.496307,224.409180 352.261017,225.068848 
	C354.388794,229.140762 356.228577,232.995834 358.068359,236.850906 
	C358.068359,258.950378 358.068359,281.049835 358.068359,303.579041 
	C353.098419,303.579041 347.229370,303.579041 341.104919,303.579041 
	C340.686249,300.006836 340.268219,296.440247 339.791870,292.376099 
	C324.311035,308.855591 305.416809,309.741943 285.699554,304.673798 
	C271.271423,300.965179 264.647186,291.723663 263.967041,276.751587 
M292.231232,290.417053 
	C304.584808,296.549683 316.842346,296.071716 328.134094,288.390411 
	C336.994934,282.362762 339.242462,272.900208 338.801453,262.111938 
	C331.426331,262.111938 324.454559,261.743408 317.540009,262.214355 
	C310.462799,262.696411 303.181885,263.127808 296.450806,265.130066 
	C283.027222,269.123138 281.033142,280.702240 292.231232,290.417053 
z"/>
<path fill="#EE3D41" opacity="1.000000" stroke="none" 
	d="
M161.870300,249.912964 
	C162.148529,254.931351 162.201309,259.518341 162.199417,264.568481 
	C137.507980,265.123169 112.871239,265.215179 88.234489,265.305298 
	C86.284157,265.312408 84.333771,265.306244 82.387878,265.306244 
	C82.419449,280.680145 94.078255,293.004883 109.284645,293.899719 
	C121.205666,294.601257 131.920242,292.338531 138.140869,280.480164 
	C138.556259,279.688263 139.932007,278.977264 140.877838,278.955475 
	C146.846436,278.817902 152.819763,278.885712 160.307739,278.885712 
	C158.056656,283.499268 156.645325,287.526917 154.313339,290.922241 
	C150.145172,296.990906 144.128250,300.936554 137.181412,303.268372 
	C121.917534,308.391907 106.434113,308.874969 91.055031,304.136566 
	C74.011726,298.885437 64.554596,286.574432 62.324795,269.328339 
	C61.343700,261.740173 61.884159,253.563065 63.620411,246.091766 
	C68.219627,226.300781 83.506683,214.647751 106.046982,213.269226 
	C113.442886,212.816910 121.107117,213.184509 128.358566,214.631195 
	C147.333893,218.416824 157.653442,231.073746 161.870300,249.912964 
M134.371307,251.781418 
	C136.492035,251.781418 138.612762,251.781418 141.302628,251.781418 
	C140.417114,242.027115 137.096817,234.267365 128.636963,229.994629 
	C116.973877,224.104019 105.094986,224.422775 94.020592,231.533966 
	C87.015854,236.031891 83.489296,242.934723 82.885147,251.781265 
	C100.175735,251.781265 116.787758,251.781265 134.371307,251.781418 
z"/>
<path fill="#6DB848" opacity="1.000000" stroke="none" 
	d="
M358.381622,237.003784 
	C356.228577,232.995834 354.388794,229.140762 352.227814,224.778076 
	C351.591949,223.834641 351.277252,223.398865 350.962555,222.963089 
	C350.962555,222.963089 351.020508,222.961349 351.030396,222.988098 
	C350.301758,221.033447 349.563232,219.052048 348.517914,216.247467 
	C356.013977,216.247467 363.073486,216.061813 370.103790,216.431747 
	C371.264313,216.492828 372.572083,218.848343 373.346619,220.378922 
	C383.189728,239.829941 392.946136,259.324829 402.730316,278.805695 
	C403.544678,280.427185 404.400208,282.027985 405.496460,284.138733 
	C413.444458,268.348114 421.144409,253.054855 428.839813,237.759277 
	C431.906097,231.664719 434.765167,225.452042 438.153595,219.542542 
	C439.069550,217.945099 441.511353,216.453186 443.362976,216.306808 
	C448.774963,215.878967 454.242554,216.154678 460.494995,216.154678 
	C459.539825,218.313187 458.965118,219.795074 458.248444,221.204803 
	C439.167450,258.737701 420.038147,296.246124 401.044250,333.823029 
	C399.558594,336.762238 397.902313,337.990295 394.552612,337.815247 
	C388.912994,337.520599 383.246826,337.734528 376.559631,337.734528 
	C377.686401,335.446960 378.472595,333.749237 379.344910,332.096954 
	C383.773926,323.707855 388.302277,315.369568 392.592957,306.910583 
	C393.307587,305.501770 393.744110,303.206787 393.090637,301.959900 
	C381.738586,280.299500 370.195953,258.738983 358.381622,237.003784 
z"/>
<path fill="#615E5E" opacity="1.000000" stroke="none" 
	d="
M474.592468,217.713593 
	C476.473328,217.708527 477.942993,217.665421 479.410187,217.708328 
	C482.750244,217.806000 482.968048,218.235931 481.626984,223.029007 
	C481.089417,221.362015 480.738373,220.273483 480.157959,218.473770 
	C479.233307,220.083466 478.604156,221.178757 477.640076,222.857132 
	C477.123108,221.331329 476.756897,220.250519 476.163788,218.499924 
	C475.257477,220.077164 474.627289,221.173874 473.997101,222.270584 
	C473.614868,222.142242 473.232635,222.013916 472.850433,221.885590 
	C473.293671,220.495255 473.736908,219.104919 474.592468,217.713593 
z"/>
<path fill="#F1F1F2" opacity="1.000000" stroke="none" 
	d="
M209.602676,293.507599 
	C192.719467,291.151550 183.421188,279.832886 182.446762,260.897705 
	C181.219940,237.057968 201.801590,220.974243 224.594604,227.929199 
	C231.691635,230.094742 236.809540,234.601959 240.101593,241.122070 
	C244.768204,250.364532 246.091797,260.080658 243.460114,270.184601 
	C239.193893,286.564270 227.737701,294.552582 209.602676,293.507599 
z"/>
<path fill="#F3F1EF" opacity="1.000000" stroke="none" 
	d="
M291.925476,290.206055 
	C281.033142,280.702240 283.027222,269.123138 296.450806,265.130066 
	C303.181885,263.127808 310.462799,262.696411 317.540009,262.214355 
	C324.454559,261.743408 331.426331,262.111938 338.801453,262.111938 
	C339.242462,272.900208 336.994934,282.362762 328.134094,288.390411 
	C316.842346,296.071716 304.584808,296.549683 291.925476,290.206055 
z"/>
<path fill="#F3F2F2" opacity="1.000000" stroke="none" 
	d="
M350.752747,223.243301 
	C351.277252,223.398865 351.591949,223.834641 351.939819,224.561218 
	C351.496307,224.409180 351.019623,223.966354 350.752747,223.243301 
z"/>
<path fill="#F3EDED" opacity="1.000000" stroke="none" 
	d="
M133.885544,251.781342 
	C116.787758,251.781265 100.175735,251.781265 82.885147,251.781265 
	C83.489296,242.934723 87.015854,236.031891 94.020592,231.533966 
	C105.094986,224.422775 116.973877,224.104019 128.636963,229.994629 
	C137.096817,234.267365 140.417114,242.027115 141.302628,251.781418 
	C138.612762,251.781418 136.492035,251.781418 133.885544,251.781342 
z"/>
</svg>