<svg version="1.1" id="Layer_1" xmlns="http://www.w3.org/2000/svg" xmlns:xlink="http://www.w3.org/1999/xlink" x="0px" y="0px"
	 width="100%" viewBox="0 0 512 512" enable-background="new 0 0 512 512" xml:space="preserve">
<path fill="#F0EFEB" opacity="1.000000" stroke="none" 
	d="
M289.000000,513.000000 
	C267.979095,513.000000 246.958206,513.000000 225.783203,512.644287 
	C224.793640,511.860382 223.996918,511.178345 223.116608,511.044067 
	C216.060394,509.967529 208.850784,509.560333 201.947449,507.881775 
	C182.614243,503.180908 163.706573,497.111359 145.765823,488.334015 
	C125.674355,478.504456 107.025627,466.529785 90.171043,451.741211 
	C74.334587,437.845886 59.941822,422.725220 47.755108,405.466003 
	C37.313423,390.678162 28.186556,375.157471 21.297659,358.467010 
	C16.928680,347.881805 13.831273,336.771729 10.620053,325.927185 
	C25.065990,325.719025 39.056965,325.216858 53.044670,325.295471 
	C85.693855,325.478943 118.342506,325.873230 150.988571,326.367493 
	C155.670929,326.438354 157.979156,325.202972 158.466324,320.171295 
	C159.717239,307.251434 161.432144,294.376801 162.925201,281.479858 
	C163.430191,277.117828 163.826126,272.743164 164.268021,268.412323 
	C156.666824,267.440125 154.248169,268.738129 151.643906,274.550476 
	C148.448456,281.682343 145.446182,288.912720 141.951248,295.895721 
	C136.622360,306.542969 127.882492,311.941803 115.845749,311.903748 
	C99.852654,311.853180 83.858345,312.012665 67.866249,311.879822 
	C56.230366,311.783173 50.888790,306.651398 50.743206,295.171234 
	C50.506615,276.513947 50.652397,257.852081 50.505817,239.193176 
	C50.477676,235.610901 51.622074,234.059464 55.402985,234.205963 
	C66.887527,234.650986 78.384689,234.768433 89.869621,235.205597 
	C97.638489,235.501343 101.745049,238.912292 103.781120,246.426514 
	C104.867729,250.436691 105.714653,254.511230 106.722099,258.543640 
	C108.034782,263.797821 112.459785,262.143524 115.787628,262.290710 
	C119.479706,262.453918 119.097580,259.381836 119.129738,256.875275 
	C119.383965,237.062241 119.611641,217.248718 119.940582,197.436905 
	C119.991753,194.354736 119.990944,191.699478 115.922653,191.458176 
	C112.015083,191.226395 108.109428,190.576248 107.082199,196.064011 
	C106.257240,200.471100 105.133118,204.828323 103.996368,209.169617 
	C101.874733,217.272186 99.182709,219.588989 90.707787,219.985153 
	C79.234169,220.521484 67.741371,220.653732 56.269485,221.217484 
	C51.832397,221.435547 50.414722,219.642014 50.443481,215.424042 
	C50.588860,194.099304 50.658062,172.773026 50.551533,151.448303 
	C50.526058,146.348389 52.734943,144.877365 57.529766,144.933868 
	C73.521713,145.122375 89.517273,145.004837 105.511444,145.004791 
	C126.861763,145.004730 131.217331,148.343399 136.915924,169.084290 
	C137.048065,169.565201 137.112427,170.064407 137.235596,170.548157 
	C138.220245,174.415726 139.063858,178.327148 140.238281,182.136459 
	C141.689514,186.843521 145.779175,184.770691 148.759628,184.830475 
	C149.808334,184.851501 151.754074,182.720490 151.845078,181.467148 
	C153.027023,165.190018 153.935577,148.893173 154.946777,132.603394 
	C155.145157,129.407516 153.756622,128.507477 150.708908,129.048218 
	C146.295334,129.831299 141.839081,130.817307 137.389084,130.880981 
	C104.080444,131.357605 70.768951,131.638687 37.457897,131.928482 
	C36.045612,131.940781 34.628834,131.436218 33.506210,130.969788 
	C42.261528,114.645531 52.748070,99.804634 65.186905,86.675621 
	C76.598053,74.631317 88.958244,63.328060 101.872139,52.902046 
	C122.145668,36.534229 144.985031,24.404825 169.622757,15.742622 
	C187.002869,9.632079 204.647385,4.712064 223.062958,2.920231 
	C223.764282,2.851993 224.356796,1.665437 225.000000,1.000002 
	C246.020889,1.000000 267.041779,1.000000 288.216736,1.356364 
	C292.786865,2.476808 297.221191,3.148742 301.615906,4.020524 
	C323.557037,8.373005 344.935791,14.660585 365.233032,24.091578 
	C387.598907,34.483761 408.383636,47.681232 426.481842,64.380531 
	C438.780884,75.728958 449.983948,88.419014 460.631104,101.369133 
	C478.150665,122.678131 490.599396,146.990692 499.456085,173.074921 
	C502.069733,180.772446 503.732239,188.792892 505.423584,196.667435 
	C498.356506,196.397156 491.698090,196.066895 485.035614,195.885818 
	C482.886078,195.827377 479.929810,194.859116 479.752258,198.561035 
	C479.597626,201.785599 478.772003,205.498123 483.636780,206.376450 
	C485.093536,206.639496 486.492462,207.259232 487.895905,207.775345 
	C497.134979,211.173065 498.785309,214.702850 495.100800,223.738983 
	C490.139435,235.906647 485.066681,248.029053 480.014771,260.159668 
	C474.659241,273.019348 469.272125,285.865875 463.384766,299.947662 
	C459.246033,289.283905 455.460297,279.901154 451.954590,270.414886 
	C445.843994,253.880035 439.756500,237.333389 433.964569,220.685486 
	C431.426971,213.391586 433.635620,209.764862 440.966064,207.501877 
	C442.075867,207.159271 443.229950,206.961868 444.360443,206.684570 
	C452.044098,204.799805 452.384583,204.189865 450.209717,195.892242 
	C448.627045,195.892242 446.982452,195.891998 445.337860,195.892273 
	C426.850098,195.895279 408.362305,195.896637 389.874542,195.904022 
	C387.969971,195.904770 385.139496,194.159302 385.072906,197.975037 
	C385.020020,201.005753 383.084442,204.892563 388.129639,206.145187 
	C394.867126,207.817947 398.907471,212.462250 401.426422,218.631424 
	C416.390686,255.279968 431.374023,291.920929 446.171112,328.636932 
	C446.994446,330.679840 447.159546,334.035980 446.023041,335.645233 
	C440.106598,344.022827 434.127960,352.447388 427.265320,360.036621 
	C421.912445,365.956207 414.278778,368.565094 406.330658,369.710632 
	C398.857910,370.787659 394.460632,368.049316 392.613251,360.746063 
	C391.309387,355.591370 390.214966,350.360382 389.442688,345.102386 
	C388.892151,341.354370 387.687195,339.539520 383.421478,339.812988 
	C379.306824,340.076721 376.612915,340.584564 375.909851,345.557831 
	C374.654388,354.438232 373.087097,363.324036 370.831757,371.994690 
	C369.513123,377.064270 370.920776,379.520569 375.479889,381.059174 
	C399.172394,389.054810 420.831757,386.171204 439.518951,368.704285 
	C452.042297,356.998749 460.221252,342.336609 466.845490,326.726929 
	C481.511810,292.166473 496.171051,257.602997 510.907806,223.436768 
	C511.654968,224.221848 512.327515,224.610931 513.000000,225.000000 
	C513.000000,246.020889 513.000000,267.041779 512.639771,288.216187 
	C511.854401,289.209290 511.226044,290.005188 511.034424,290.895111 
	C508.053436,304.739471 505.690033,318.745178 502.055298,332.413513 
	C497.041901,351.266235 488.916595,368.925690 479.037842,385.758301 
	C470.168121,400.871735 460.222900,415.274414 448.265076,428.060791 
	C436.017181,441.157318 423.150482,453.634430 408.464050,464.173645 
	C388.862579,478.240021 368.033142,489.887665 345.302246,497.965027 
	C327.504486,504.289398 309.412781,509.566589 290.437653,511.097473 
	C289.910675,511.139984 289.477112,512.339783 289.000000,513.000000 
M355.220978,227.054001 
	C356.603668,231.099304 359.519714,232.125366 363.508118,231.551117 
	C367.732391,230.942917 367.510773,227.737091 367.772156,224.792801 
	C368.434418,217.332077 368.877228,209.847580 369.733459,202.410080 
	C370.181091,198.522018 368.447601,196.639709 365.019440,196.192932 
	C353.655609,194.711960 342.271332,192.398270 330.889862,192.369156 
	C322.467102,192.347610 313.734009,194.509659 305.685272,197.283539 
	C295.400055,200.828171 288.602234,208.528778 285.907806,219.421555 
	C281.672089,236.545410 287.195923,251.084976 302.431793,260.142670 
	C310.833923,265.137695 320.162720,268.553131 328.712769,273.327209 
	C334.737579,276.691315 341.018158,280.334381 345.656433,285.284668 
	C354.203461,294.406738 351.467224,309.485107 341.209869,315.021362 
	C325.844116,323.314758 306.966278,316.316406 300.809998,300.033691 
	C299.222992,295.836273 297.748352,291.595032 296.094788,287.424408 
	C294.426178,283.215790 290.926117,282.543915 287.008850,283.239746 
	C282.634552,284.016815 284.252716,287.468750 284.290436,290.054352 
	C284.389923,296.876892 284.977814,303.708679 284.750427,310.516022 
	C284.372986,321.814209 284.134583,321.947083 295.370392,324.655029 
	C312.861603,328.870667 330.410919,331.282379 348.020264,325.109497 
	C362.670258,319.973999 372.772430,310.541077 374.882416,294.675995 
	C377.112610,277.907104 370.193756,265.178223 355.764679,256.530701 
	C352.345886,254.481781 348.768066,252.684540 345.194427,250.910461 
	C336.854126,246.770050 328.295319,243.028992 320.186768,238.481140 
	C316.536041,236.433563 313.150482,233.277084 310.689941,229.869019 
	C304.555054,221.371674 307.692566,210.358215 317.174255,205.924805 
	C325.780731,201.900604 334.599060,202.110168 343.404816,205.342834 
	C350.467346,207.935577 351.275299,214.677368 353.312683,220.570526 
	C353.963837,222.453857 354.469635,224.387436 355.220978,227.054001 
M244.812653,311.809509 
	C232.660126,313.352173 226.226135,310.058929 223.290054,300.038544 
	C221.948914,295.461487 221.189484,290.553741 221.139694,285.785797 
	C220.901413,262.957977 221.097275,240.125748 220.888718,217.297348 
	C220.846558,212.682114 222.614227,211.531387 226.832718,211.929367 
	C236.282761,212.820877 245.765778,213.359116 255.219589,214.215546 
	C259.287537,214.584076 261.599762,213.654480 261.387817,208.942184 
	C261.262238,206.150635 261.738861,203.273529 262.341705,200.521866 
	C263.174438,196.720718 261.595001,195.853302 258.135864,196.044785 
	C247.822601,196.615707 237.496643,196.952332 227.179626,197.461700 
	C221.353821,197.749329 220.998688,197.482635 220.994431,191.509598 
	C220.987289,181.511078 220.946533,171.512283 221.011780,161.514206 
	C221.031158,158.542557 220.123062,156.940002 216.818436,156.660782 
	C210.665344,156.140945 209.689774,156.736115 208.261093,162.716522 
	C203.633896,182.085739 195.214203,198.138214 173.324722,202.297913 
	C172.691772,202.418198 171.740982,202.704224 171.577393,203.148361 
	C170.713470,205.493561 169.578751,207.914246 169.578522,210.308853 
	C169.578430,211.166382 172.441345,212.630814 174.082397,212.762726 
	C178.219238,213.095261 182.404449,212.835648 186.570129,212.798264 
	C193.276550,212.738098 193.284851,212.732971 193.281876,219.301315 
	C193.270386,244.630981 193.167618,269.960999 193.266373,295.290192 
	C193.338654,313.830170 203.058395,325.473633 221.200119,328.570404 
	C225.740509,329.345459 230.550980,329.382538 235.138138,328.870392 
	C245.991333,327.658600 255.918243,324.141693 263.070312,315.198029 
	C267.683990,309.428650 267.283691,306.770874 261.999756,302.781891 
	C256.274811,305.853394 250.952042,308.709106 244.812653,311.809509 
z"/>
<path fill="#000000" opacity="1.000000" stroke="none" 
	d="
M505.830688,196.665359 
	C503.732239,188.792892 502.069733,180.772446 499.456085,173.074921 
	C490.599396,146.990692 478.150665,122.678131 460.631104,101.369133 
	C449.983948,88.419014 438.780884,75.728958 426.481842,64.380531 
	C408.383636,47.681232 387.598907,34.483761 365.233032,24.091578 
	C344.935791,14.660585 323.557037,8.373005 301.615906,4.020524 
	C297.221191,3.148742 292.786865,2.476808 288.685394,1.356364 
	C363.593719,1.000000 438.187408,1.000000 513.000000,1.000000 
	C513.000000,75.354088 513.000000,149.708389 513.000000,224.531342 
	C512.327515,224.610931 511.654968,224.221848 510.977448,223.013397 
	C510.647736,219.796066 510.471375,217.366562 509.969543,215.006287 
	C508.666290,208.876404 507.219910,202.776947 505.830688,196.665359 
z"/>
<path fill="#000000" opacity="1.000000" stroke="none" 
	d="
M10.163601,325.897064 
	C13.831273,336.771729 16.928680,347.881805 21.297659,358.467010 
	C28.186556,375.157471 37.313423,390.678162 47.755108,405.466003 
	C59.941822,422.725220 74.334587,437.845886 90.171043,451.741211 
	C107.025627,466.529785 125.674355,478.504456 145.765823,488.334015 
	C163.706573,497.111359 182.614243,503.180908 201.947449,507.881775 
	C208.850784,509.560333 216.060394,509.967529 223.116608,511.044067 
	C223.996918,511.178345 224.793640,511.860382 225.314545,512.644287 
	C150.406296,513.000000 75.812599,513.000000 1.000000,513.000000 
	C1.000000,438.645905 1.000000,364.291626 1.360432,289.154175 
	C2.146215,289.873352 2.677390,291.354797 2.978651,292.881592 
	C4.302655,299.591736 5.560234,306.315033 6.908816,313.441254 
	C8.038361,317.864990 9.100979,321.881042 10.163601,325.897064 
z"/>
<path fill="#000000" opacity="1.000000" stroke="none" 
	d="
M289.468658,513.000000 
	C289.477112,512.339783 289.910675,511.139984 290.437653,511.097473 
	C309.412781,509.566589 327.504486,504.289398 345.302246,497.965027 
	C368.033142,489.887665 388.862579,478.240021 408.464050,464.173645 
	C423.150482,453.634430 436.017181,441.157318 448.265076,428.060791 
	C460.222900,415.274414 470.168121,400.871735 479.037842,385.758301 
	C488.916595,368.925690 497.041901,351.266235 502.055298,332.413513 
	C505.690033,318.745178 508.053436,304.739471 511.034424,290.895111 
	C511.226044,290.005188 511.854401,289.209290 512.639771,288.684814 
	C513.000000,363.593719 513.000000,438.187408 513.000000,513.000000 
	C438.645905,513.000000 364.291626,513.000000 289.468658,513.000000 
z"/>
<path fill="#F66706" opacity="1.000000" stroke="none" 
	d="
M10.620050,325.927185 
	C9.100979,321.881042 8.038361,317.864990 7.101552,313.107910 
	C18.247869,309.614716 19.926321,307.661041 19.945669,296.310394 
	C20.020433,252.448196 20.015118,208.585846 19.988834,164.723572 
	C19.987904,163.170593 19.450605,161.617920 19.095703,159.636658 
	C19.670670,153.734222 17.878984,149.183960 12.687179,147.165131 
	C9.059355,145.754456 4.914128,145.674393 1.000000,145.000000 
	C1.000000,140.310745 1.000000,135.621490 1.426397,130.479889 
	C3.744598,130.352036 5.631930,130.924240 7.528975,130.958481 
	C16.089197,131.113068 24.652168,131.115295 33.214149,131.172455 
	C34.628834,131.436218 36.045612,131.940781 37.457897,131.928482 
	C70.768951,131.638687 104.080444,131.357605 137.389084,130.880981 
	C141.839081,130.817307 146.295334,129.831299 150.708908,129.048218 
	C153.756622,128.507477 155.145157,129.407516 154.946777,132.603394 
	C153.935577,148.893173 153.027023,165.190018 151.845078,181.467148 
	C151.754074,182.720490 149.808334,184.851501 148.759628,184.830475 
	C145.779175,184.770691 141.689514,186.843521 140.238281,182.136459 
	C139.063858,178.327148 138.220245,174.415726 137.235596,170.548157 
	C137.112427,170.064407 137.048065,169.565201 136.915924,169.084290 
	C131.217331,148.343399 126.861763,145.004730 105.511444,145.004791 
	C89.517273,145.004837 73.521713,145.122375 57.529766,144.933868 
	C52.734943,144.877365 50.526058,146.348389 50.551533,151.448303 
	C50.658062,172.773026 50.588860,194.099304 50.443481,215.424042 
	C50.414722,219.642014 51.832397,221.435547 56.269485,221.217484 
	C67.741371,220.653732 79.234169,220.521484 90.707787,219.985153 
	C99.182709,219.588989 101.874733,217.272186 103.996368,209.169617 
	C105.133118,204.828323 106.257240,200.471100 107.082199,196.064011 
	C108.109428,190.576248 112.015083,191.226395 115.922653,191.458176 
	C119.990944,191.699478 119.991753,194.354736 119.940582,197.436905 
	C119.611641,217.248718 119.383965,237.062241 119.129738,256.875275 
	C119.097580,259.381836 119.479706,262.453918 115.787628,262.290710 
	C112.459785,262.143524 108.034782,263.797821 106.722099,258.543640 
	C105.714653,254.511230 104.867729,250.436691 103.781120,246.426514 
	C101.745049,238.912292 97.638489,235.501343 89.869621,235.205597 
	C78.384689,234.768433 66.887527,234.650986 55.402985,234.205963 
	C51.622074,234.059464 50.477676,235.610901 50.505817,239.193176 
	C50.652397,257.852081 50.506615,276.513947 50.743206,295.171234 
	C50.888790,306.651398 56.230366,311.783173 67.866249,311.879822 
	C83.858345,312.012665 99.852654,311.853180 115.845749,311.903748 
	C127.882492,311.941803 136.622360,306.542969 141.951248,295.895721 
	C145.446182,288.912720 148.448456,281.682343 151.643906,274.550476 
	C154.248169,268.738129 156.666824,267.440125 164.268021,268.412323 
	C163.826126,272.743164 163.430191,277.117828 162.925201,281.479858 
	C161.432144,294.376801 159.717239,307.251434 158.466324,320.171295 
	C157.979156,325.202972 155.670929,326.438354 150.988571,326.367493 
	C118.342506,325.873230 85.693855,325.478943 53.044670,325.295471 
	C39.056965,325.216858 25.065990,325.719025 10.620050,325.927185 
z"/>
<path fill="#000000" opacity="1.000000" stroke="none" 
	d="
M33.506210,130.969788 
	C24.652168,131.115295 16.089197,131.113068 7.528975,130.958481 
	C5.631930,130.924240 3.744598,130.352036 1.426397,130.013763 
	C1.000000,87.053337 1.000000,44.106678 1.000000,1.000000 
	C75.354149,1.000000 149.708420,1.000000 224.531342,1.000002 
	C224.356796,1.665437 223.764282,2.851993 223.062958,2.920231 
	C204.647385,4.712064 187.002869,9.632079 169.622757,15.742622 
	C144.985031,24.404825 122.145668,36.534229 101.872139,52.902046 
	C88.958244,63.328060 76.598053,74.631317 65.186905,86.675621 
	C52.748070,99.804634 42.261528,114.645531 33.506210,130.969788 
z"/>
<path fill="#F0EDE8" opacity="1.000000" stroke="none" 
	d="
M19.163292,160.065109 
	C19.450605,161.617920 19.987904,163.170593 19.988834,164.723572 
	C20.015118,208.585846 20.020433,252.448196 19.945669,296.310394 
	C19.926321,307.661041 18.247869,309.614716 7.034627,312.700195 
	C5.560234,306.315033 4.302655,299.591736 2.978651,292.881592 
	C2.677390,291.354797 2.146215,289.873352 1.360432,288.685516 
	C1.000000,267.979095 1.000000,246.958206 1.360449,225.783081 
	C2.483461,221.073151 2.838125,216.402832 4.080565,211.982025 
	C8.956207,194.633682 14.111723,177.363998 19.163292,160.065109 
z"/>
<path fill="#000000" opacity="1.000000" stroke="none" 
	d="
M19.095705,159.636658 
	C14.111723,177.363998 8.956207,194.633682 4.080565,211.982025 
	C2.838125,216.402832 2.483461,221.073151 1.360449,225.314423 
	C1.000000,198.645767 1.000000,172.291550 1.000000,145.468658 
	C4.914128,145.674393 9.059355,145.754456 12.687179,147.165131 
	C17.878984,149.183960 19.670670,153.734222 19.095705,159.636658 
z"/>
<path fill="#F66807" opacity="1.000000" stroke="none" 
	d="
M505.423584,196.667435 
	C507.219910,202.776947 508.666290,208.876404 509.969543,215.006287 
	C510.471375,217.366562 510.647736,219.796066 510.902802,222.617386 
	C496.171051,257.602997 481.511810,292.166473 466.845490,326.726929 
	C460.221252,342.336609 452.042297,356.998749 439.518951,368.704285 
	C420.831757,386.171204 399.172394,389.054810 375.479889,381.059174 
	C370.920776,379.520569 369.513123,377.064270 370.831757,371.994690 
	C373.087097,363.324036 374.654388,354.438232 375.909851,345.557831 
	C376.612915,340.584564 379.306824,340.076721 383.421478,339.812988 
	C387.687195,339.539520 388.892151,341.354370 389.442688,345.102386 
	C390.214966,350.360382 391.309387,355.591370 392.613251,360.746063 
	C394.460632,368.049316 398.857910,370.787659 406.330658,369.710632 
	C414.278778,368.565094 421.912445,365.956207 427.265320,360.036621 
	C434.127960,352.447388 440.106598,344.022827 446.023041,335.645233 
	C447.159546,334.035980 446.994446,330.679840 446.171112,328.636932 
	C431.374023,291.920929 416.390686,255.279968 401.426422,218.631424 
	C398.907471,212.462250 394.867126,207.817947 388.129639,206.145187 
	C383.084442,204.892563 385.020020,201.005753 385.072906,197.975037 
	C385.139496,194.159302 387.969971,195.904770 389.874542,195.904022 
	C408.362305,195.896637 426.850098,195.895279 445.337860,195.892273 
	C446.982452,195.891998 448.627045,195.892242 450.209717,195.892242 
	C452.384583,204.189865 452.044098,204.799805 444.360443,206.684570 
	C443.229950,206.961868 442.075867,207.159271 440.966064,207.501877 
	C433.635620,209.764862 431.426971,213.391586 433.964569,220.685486 
	C439.756500,237.333389 445.843994,253.880035 451.954590,270.414886 
	C455.460297,279.901154 459.246033,289.283905 463.384766,299.947662 
	C469.272125,285.865875 474.659241,273.019348 480.014771,260.159668 
	C485.066681,248.029053 490.139435,235.906647 495.100800,223.738983 
	C498.785309,214.702850 497.134979,211.173065 487.895905,207.775345 
	C486.492462,207.259232 485.093536,206.639496 483.636780,206.376450 
	C478.772003,205.498123 479.597626,201.785599 479.752258,198.561035 
	C479.929810,194.859116 482.886078,195.827377 485.035614,195.885818 
	C491.698090,196.066895 498.356506,196.397156 505.423584,196.667435 
z"/>
<path fill="#F66807" opacity="1.000000" stroke="none" 
	d="
M355.131470,226.676025 
	C354.469635,224.387436 353.963837,222.453857 353.312683,220.570526 
	C351.275299,214.677368 350.467346,207.935577 343.404816,205.342834 
	C334.599060,202.110168 325.780731,201.900604 317.174255,205.924805 
	C307.692566,210.358215 304.555054,221.371674 310.689941,229.869019 
	C313.150482,233.277084 316.536041,236.433563 320.186768,238.481140 
	C328.295319,243.028992 336.854126,246.770050 345.194427,250.910461 
	C348.768066,252.684540 352.345886,254.481781 355.764679,256.530701 
	C370.193756,265.178223 377.112610,277.907104 374.882416,294.675995 
	C372.772430,310.541077 362.670258,319.973999 348.020264,325.109497 
	C330.410919,331.282379 312.861603,328.870667 295.370392,324.655029 
	C284.134583,321.947083 284.372986,321.814209 284.750427,310.516022 
	C284.977814,303.708679 284.389923,296.876892 284.290436,290.054352 
	C284.252716,287.468750 282.634552,284.016815 287.008850,283.239746 
	C290.926117,282.543915 294.426178,283.215790 296.094788,287.424408 
	C297.748352,291.595032 299.222992,295.836273 300.809998,300.033691 
	C306.966278,316.316406 325.844116,323.314758 341.209869,315.021362 
	C351.467224,309.485107 354.203461,294.406738 345.656433,285.284668 
	C341.018158,280.334381 334.737579,276.691315 328.712769,273.327209 
	C320.162720,268.553131 310.833923,265.137695 302.431793,260.142670 
	C287.195923,251.084976 281.672089,236.545410 285.907806,219.421555 
	C288.602234,208.528778 295.400055,200.828171 305.685272,197.283539 
	C313.734009,194.509659 322.467102,192.347610 330.889862,192.369156 
	C342.271332,192.398270 353.655609,194.711960 365.019440,196.192932 
	C368.447601,196.639709 370.181091,198.522018 369.733459,202.410080 
	C368.877228,209.847580 368.434418,217.332077 367.772156,224.792801 
	C367.510773,227.737091 367.732391,230.942917 363.508118,231.551117 
	C359.519714,232.125366 356.603668,231.099304 355.131470,226.676025 
z"/>
<path fill="#F66706" opacity="1.000000" stroke="none" 
	d="
M245.220978,311.687195 
	C250.952042,308.709106 256.274811,305.853394 261.999756,302.781891 
	C267.283691,306.770874 267.683990,309.428650 263.070312,315.198029 
	C255.918243,324.141693 245.991333,327.658600 235.138138,328.870392 
	C230.550980,329.382538 225.740509,329.345459 221.200119,328.570404 
	C203.058395,325.473633 193.338654,313.830170 193.266373,295.290192 
	C193.167618,269.960999 193.270386,244.630981 193.281876,219.301315 
	C193.284851,212.732971 193.276550,212.738098 186.570129,212.798264 
	C182.404449,212.835648 178.219238,213.095261 174.082397,212.762726 
	C172.441345,212.630814 169.578430,211.166382 169.578522,210.308853 
	C169.578751,207.914246 170.713470,205.493561 171.577393,203.148361 
	C171.740982,202.704224 172.691772,202.418198 173.324722,202.297913 
	C195.214203,198.138214 203.633896,182.085739 208.261093,162.716522 
	C209.689774,156.736115 210.665344,156.140945 216.818436,156.660782 
	C220.123062,156.940002 221.031158,158.542557 221.011780,161.514206 
	C220.946533,171.512283 220.987289,181.511078 220.994431,191.509598 
	C220.998688,197.482635 221.353821,197.749329 227.179626,197.461700 
	C237.496643,196.952332 247.822601,196.615707 258.135864,196.044785 
	C261.595001,195.853302 263.174438,196.720718 262.341705,200.521866 
	C261.738861,203.273529 261.262238,206.150635 261.387817,208.942184 
	C261.599762,213.654480 259.287537,214.584076 255.219589,214.215546 
	C245.765778,213.359116 236.282761,212.820877 226.832718,211.929367 
	C222.614227,211.531387 220.846558,212.682114 220.888718,217.297348 
	C221.097275,240.125748 220.901413,262.957977 221.139694,285.785797 
	C221.189484,290.553741 221.948914,295.461487 223.290054,300.038544 
	C226.226135,310.058929 232.660126,313.352173 245.220978,311.687195 
z"/>
</svg>