<svg version="1.1" id="Layer_1" xmlns="http://www.w3.org/2000/svg" xmlns:xlink="http://www.w3.org/1999/xlink" x="0px" y="0px"
	 width="100%" viewBox="0 0 512 512" enable-background="new 0 0 512 512" xml:space="preserve">
<path fill="#F0EFEB" opacity="1.000000" stroke="none" 
	d="
M1.000005,229.000000 
	C1.000000,227.933334 1.000000,226.866653 1.354412,225.717499 
	C2.132267,224.966599 2.817172,224.342209 2.938247,223.622910 
	C4.013985,217.231949 4.838685,210.796097 6.021590,204.426254 
	C11.119455,176.974655 21.374500,151.365555 35.357666,127.391258 
	C49.946918,102.377808 68.574081,80.548370 90.704178,61.727863 
	C109.141350,46.048000 129.225388,33.109741 151.321136,23.180923 
	C174.250900,12.877350 198.045364,5.858956 223.034607,2.922937 
	C223.755112,2.838285 224.347748,1.665453 225.000000,1.000003 
	C246.020889,1.000000 267.041779,1.000000 288.213654,1.355015 
	C289.199951,2.138718 289.990784,2.774305 290.877289,2.965138 
	C304.727020,5.946382 318.744873,8.288738 332.409760,11.950932 
	C350.451233,16.786049 367.354645,24.541225 383.620758,33.831944 
	C399.430634,42.862053 414.390198,53.089882 427.657928,65.435875 
	C438.146576,75.195885 448.239380,85.622063 457.026154,96.906235 
	C466.891418,109.575394 475.853058,123.105934 483.824036,137.052597 
	C493.870056,154.629837 500.908936,173.677826 505.587952,193.396301 
	C508.077454,203.887711 509.100464,214.727097 510.424255,225.470123 
	C504.212311,229.574081 498.417206,233.701508 492.488983,237.627945 
	C489.118683,239.860184 488.187866,242.598663 490.212830,246.051620 
	C492.311707,249.630585 495.176636,250.367355 499.030731,248.370941 
	C503.569397,246.019928 508.333588,244.104385 513.000000,242.000000 
	C513.000000,252.020889 513.000000,262.041779 512.697327,272.370850 
	C506.970581,269.923065 501.667480,266.859589 496.031738,264.641418 
	C494.729279,264.128784 491.461700,266.061584 490.592438,267.674347 
	C489.621277,269.476105 489.388885,273.463959 490.499023,274.305664 
	C497.062653,279.282349 504.109985,283.621002 510.997192,288.617584 
	C510.488037,304.055359 506.347504,318.301483 502.132507,332.547638 
	C496.923157,350.154724 489.630035,366.837463 480.662872,382.849274 
	C471.775909,398.718018 461.630920,413.813599 449.206604,426.968048 
	C437.585541,439.272003 424.993011,450.837219 411.776825,461.414032 
	C391.703308,477.478699 369.167664,489.510223 344.823639,498.073425 
	C327.126831,504.298431 309.201263,509.397461 290.431244,511.095886 
	C289.901062,511.143829 289.474731,512.339478 289.000000,513.000000 
	C267.979095,513.000000 246.958206,513.000000 225.776688,512.641418 
	C224.776825,511.856537 223.981613,511.227234 223.091782,511.034271 
	C209.102219,508.000641 194.957748,505.561646 181.137268,501.898041 
	C163.408218,497.198364 146.840256,489.484222 130.851135,480.458435 
	C115.017212,471.520203 100.043602,461.302582 86.774979,448.976898 
	C76.159904,439.116180 65.918785,428.596466 57.060867,417.168457 
	C47.037354,404.236694 38.111164,390.332855 29.863941,376.178070 
	C20.561005,360.211304 14.178210,342.805573 9.529314,324.922577 
	C6.778602,314.341339 5.233951,303.446533 3.490633,292.826263 
	C5.122744,293.703918 6.340073,294.632263 7.711424,295.161652 
	C15.363494,298.115753 19.477531,296.020447 21.397274,288.255981 
	C23.671394,279.058228 25.935112,269.857819 28.157015,260.647369 
	C29.772648,253.950089 31.313087,247.234680 33.146523,239.421661 
	C36.264870,254.250366 39.074841,267.847229 42.016808,281.415497 
	C42.646229,284.318390 43.422459,287.279205 44.713867,289.929352 
	C47.086712,294.798676 52.249676,296.606262 58.881073,295.949890 
	C64.024345,295.440796 63.357124,291.250000 64.185165,288.176056 
	C70.021683,266.509033 75.720726,244.804947 81.436607,223.105576 
	C81.789894,221.764374 81.913498,220.362671 82.177422,218.789734 
	C76.572266,218.789734 71.608017,218.789734 66.154015,218.789734 
	C62.288498,237.727203 58.443550,256.563934 54.452232,276.117706 
	C51.178951,260.141113 48.044392,244.854965 44.915966,229.567566 
	C42.666485,218.575256 42.659386,218.861221 31.730101,218.451508 
	C26.768433,218.265488 24.921036,219.874847 23.912802,224.665176 
	C20.347099,241.606598 16.304800,258.447723 12.443172,275.326874 
	C11.138201,272.355042 10.565737,269.316437 9.992481,266.277954 
	C7.896257,255.167175 5.868032,244.042572 3.619871,232.962616 
	C3.327925,231.523773 1.901134,230.315216 1.000005,229.000000 
M225.687958,249.620255 
	C231.806931,249.974869 234.295517,251.678726 235.315170,257.558716 
	C236.075714,261.944458 235.988327,266.498260 236.046371,270.980225 
	C236.149078,278.914124 236.075165,286.850250 236.075165,294.819885 
	C241.673096,294.819885 246.570465,294.819885 251.893112,294.819885 
	C251.893112,287.327576 252.016220,280.194702 251.857712,273.068115 
	C251.706161,266.254517 251.989197,259.317169 250.797791,252.664032 
	C248.139572,237.819885 232.930939,231.610077 220.603806,239.967392 
	C218.070602,241.684814 215.919083,243.965225 213.448273,246.110596 
	C210.030273,239.798508 204.878036,236.644821 197.977295,236.389923 
	C191.282455,236.142639 185.885162,238.979065 181.151947,244.360733 
	C180.928223,241.776703 180.776749,240.027206 180.614746,238.156204 
	C175.583176,238.156204 170.887955,238.156204 166.230286,238.156204 
	C166.230286,257.307495 166.230286,276.049957 166.230286,294.768677 
	C171.451950,294.768677 176.326859,294.768677 181.659424,294.768677 
	C181.659424,292.549194 181.659958,290.744812 181.659332,288.940430 
	C181.656174,279.941437 181.678467,270.942322 181.638382,261.943512 
	C181.618652,257.514221 182.897644,253.707321 186.683929,251.114304 
	C193.133636,246.697311 200.414703,251.147812 200.802231,260.197174 
	C201.222549,270.012177 200.954651,279.856689 200.984833,289.688354 
	C200.990204,291.436249 200.985611,293.184143 200.985611,294.898804 
	C206.571594,294.898804 211.347076,294.898804 216.745544,294.898804 
	C216.745544,292.831726 216.742889,291.048248 216.745987,289.264740 
	C216.762833,279.599640 216.703369,269.933502 216.829453,260.269806 
	C216.899704,254.885834 219.229614,251.001160 225.687958,249.620255 
M113.931480,289.450409 
	C115.114388,290.307434 116.452705,291.014282 117.452034,292.048676 
	C120.904129,295.621796 124.834801,296.763000 128.927063,295.418762 
	C128.927063,282.394043 129.230850,269.939545 128.818283,257.508789 
	C128.551529,249.471909 125.431190,242.353683 117.462936,239.000809 
	C105.801704,234.093979 94.498703,236.277100 83.111305,241.471191 
	C84.168724,245.054474 85.089172,248.173615 85.756462,250.434845 
	C92.553329,249.537888 98.682556,248.205185 104.837097,248.075714 
	C110.159767,247.963730 112.559578,251.301483 112.535301,256.985504 
	C109.281509,257.320557 105.982071,257.559357 102.713455,258.017883 
	C95.872231,258.977570 89.307465,260.739044 84.288544,265.903046 
	C79.368713,270.965057 77.817581,277.019501 79.721901,283.823425 
	C81.660217,290.748810 86.390846,294.665680 93.359917,296.114929 
	C101.202896,297.745880 107.751938,295.324036 113.931480,289.450409 
M261.593933,289.773560 
	C264.975403,294.189423 269.650726,296.080048 275.009735,296.464294 
	C282.403961,296.994568 288.554626,294.178253 293.852203,288.639252 
	C297.518646,294.195007 301.890442,297.420441 307.962891,295.346893 
	C307.962891,282.781036 308.137878,270.817444 307.901703,258.861969 
	C307.743042,250.830933 305.321777,243.409164 297.572021,239.653564 
	C285.585144,233.844574 273.807007,236.096771 261.996643,241.490311 
	C263.199219,245.267853 264.219910,248.473984 265.261719,251.746567 
	C280.736847,244.306320 293.126282,247.942825 291.673889,256.287537 
	C284.753815,257.777588 277.714935,258.513672 271.254517,260.849548 
	C258.523193,265.452698 254.552795,277.447723 261.593933,289.773560 
M358.476715,222.846832 
	C358.525818,232.668320 358.547363,242.490036 358.631836,252.311218 
	C358.714844,261.963531 358.562195,271.631042 359.067932,281.262726 
	C359.540527,290.262573 364.538391,295.411469 373.439056,296.215454 
	C377.794098,296.608887 382.257233,295.805695 386.716309,295.541473 
	C386.716309,290.919434 386.716309,287.163757 386.716309,283.225464 
	C384.639282,283.225464 382.843719,283.151733 381.056213,283.240662 
	C377.224701,283.431335 374.596649,281.427948 374.446503,277.911163 
	C374.074677,269.203552 374.324371,260.469452 374.324371,251.220490 
	C378.804779,251.220490 382.891907,251.220490 387.053955,251.220490 
	C387.053955,246.156860 387.053955,241.639679 387.053955,236.639435 
	C382.495911,236.639435 378.413696,236.639435 373.734741,236.639435 
	C373.734741,230.441544 373.734741,224.718292 373.734741,218.691147 
	C369.307892,218.691147 365.467346,218.442429 361.694763,218.839432 
	C360.529907,218.962036 359.550201,220.844025 358.476715,222.846832 
M139.272202,249.499939 
	C139.272202,264.588440 139.272202,279.676971 139.272202,294.797729 
	C144.878174,294.797729 149.764069,294.797729 154.789597,294.797729 
	C154.789597,269.330200 154.789597,244.255997 154.789597,218.885544 
	C149.664948,218.885544 144.759491,218.885544 139.272354,218.885544 
	C139.272354,228.957809 139.272354,238.728867 139.272202,249.499939 
M318.225250,254.502380 
	C318.225250,267.932373 318.225250,281.362366 318.225250,294.969269 
	C323.898407,294.969269 328.847382,294.969269 334.457733,294.969269 
	C334.457733,285.816772 334.367828,276.868530 334.479187,267.922852 
	C334.638733,255.102905 338.203186,251.624863 350.877808,251.573257 
	C351.152618,251.572144 351.426086,251.251511 351.891296,250.960312 
	C351.891296,246.457275 351.891296,241.840515 351.891296,236.877045 
	C342.975525,235.133087 337.548187,239.924194 332.771210,247.364075 
	C332.548187,243.607986 332.384735,240.855286 332.225555,238.174072 
	C327.380859,238.174072 323.000244,238.174072 318.225403,238.174072 
	C318.225403,243.564285 318.225403,248.534286 318.225250,254.502380 
M452.003693,238.675140 
	C443.447510,232.673325 434.919678,226.630478 426.323700,220.686203 
	C421.709045,217.495087 417.316589,218.732803 414.339325,223.879852 
	C411.416504,228.932739 412.558350,233.581589 417.460236,235.897095 
	C426.302612,240.073929 435.227264,244.077301 444.051453,248.291489 
	C446.848541,249.627258 449.427307,250.309036 451.676575,247.634903 
	C453.830811,245.073715 455.150909,242.279861 452.003693,238.675140 
M464.010895,214.571075 
	C464.414459,219.369766 464.856873,224.165588 465.209930,228.967987 
	C465.517761,233.154160 467.546478,235.371887 471.895935,235.218170 
	C476.057892,235.071045 477.638123,232.689407 477.927795,228.804092 
	C478.656189,219.034592 479.526642,209.275665 480.335297,199.512115 
	C480.789734,194.025162 477.961670,191.153671 471.961029,190.996246 
	C465.651398,190.830704 462.500793,193.581985 462.805511,199.249405 
	C463.063904,204.056091 463.575714,208.849152 464.010895,214.571075 
M429.060577,272.595154 
	C425.148804,274.402740 421.209412,276.153381 417.332245,278.032349 
	C412.476471,280.385529 411.460815,284.919922 414.530609,290.107239 
	C417.510162,295.142090 421.679565,296.418365 426.083862,293.391876 
	C434.423126,287.661469 442.630280,281.738678 450.976624,276.018768 
	C454.216797,273.798248 454.745850,271.149780 452.898621,267.910950 
	C450.969757,264.528839 448.339935,263.412170 444.580963,265.288055 
	C439.689575,267.729095 434.676331,269.926056 429.060577,272.595154 
M465.046021,287.594818 
	C464.300293,296.872253 463.408783,306.141174 462.868439,315.430573 
	C462.584961,320.304260 466.190704,323.148315 471.763733,323.036621 
	C477.335571,322.924957 480.774017,319.834961 480.403320,315.045258 
	C479.620941,304.936584 478.759460,294.833618 477.859192,284.734680 
	C477.432404,279.946869 474.804138,278.067871 470.077728,278.790741 
	C465.290436,279.522919 465.342285,283.180054 465.046021,287.594818 
z"/>
<path fill="#000000" opacity="1.000000" stroke="none" 
	d="
M224.531342,1.000003 
	C224.347748,1.665453 223.755112,2.838285 223.034607,2.922937 
	C198.045364,5.858956 174.250900,12.877350 151.321136,23.180923 
	C129.225388,33.109741 109.141350,46.048000 90.704178,61.727863 
	C68.574081,80.548370 49.946918,102.377808 35.357666,127.391258 
	C21.374500,151.365555 11.119455,176.974655 6.021590,204.426254 
	C4.838685,210.796097 4.013985,217.231949 2.938247,223.622910 
	C2.817172,224.342209 2.132267,224.966599 1.354412,225.317505 
	C1.000000,150.406296 1.000000,75.812576 1.000000,1.000000 
	C75.354088,1.000000 149.708389,1.000000 224.531342,1.000003 
z"/>
<path fill="#000000" opacity="1.000000" stroke="none" 
	d="
M3.146963,292.692749 
	C5.233951,303.446533 6.778602,314.341339 9.529314,324.922577 
	C14.178210,342.805573 20.561005,360.211304 29.863941,376.178070 
	C38.111164,390.332855 47.037354,404.236694 57.060867,417.168457 
	C65.918785,428.596466 76.159904,439.116180 86.774979,448.976898 
	C100.043602,461.302582 115.017212,471.520203 130.851135,480.458435 
	C146.840256,489.484222 163.408218,497.198364 181.137268,501.898041 
	C194.957748,505.561646 209.102219,508.000641 223.091782,511.034271 
	C223.981613,511.227234 224.776825,511.856537 225.308029,512.641418 
	C150.406296,513.000000 75.812599,513.000000 1.000000,513.000000 
	C1.000000,438.645905 1.000000,364.291626 1.341860,289.246948 
	C2.171469,289.935333 2.659217,291.314026 3.146963,292.692749 
z"/>
<path fill="#000000" opacity="1.000000" stroke="none" 
	d="
M510.785400,225.409424 
	C509.100464,214.727097 508.077454,203.887711 505.587952,193.396301 
	C500.908936,173.677826 493.870056,154.629837 483.824036,137.052597 
	C475.853058,123.105934 466.891418,109.575394 457.026154,96.906235 
	C448.239380,85.622063 438.146576,75.195885 427.657928,65.435875 
	C414.390198,53.089882 399.430634,42.862053 383.620758,33.831944 
	C367.354645,24.541225 350.451233,16.786049 332.409760,11.950932 
	C318.744873,8.288738 304.727020,5.946382 290.877289,2.965138 
	C289.990784,2.774305 289.199951,2.138718 288.682312,1.355015 
	C363.593842,1.000000 438.187714,1.000000 513.000000,1.000000 
	C513.000000,75.687416 513.000000,150.375046 512.635742,225.850433 
	C511.776154,226.228592 511.280792,225.819016 510.785400,225.409424 
z"/>
<path fill="#000000" opacity="1.000000" stroke="none" 
	d="
M289.468628,513.000000 
	C289.474731,512.339478 289.901062,511.143829 290.431244,511.095886 
	C309.201263,509.397461 327.126831,504.298431 344.823639,498.073425 
	C369.167664,489.510223 391.703308,477.478699 411.776825,461.414032 
	C424.993011,450.837219 437.585541,439.272003 449.206604,426.968048 
	C461.630920,413.813599 471.775909,398.718018 480.662872,382.849274 
	C489.630035,366.837463 496.923157,350.154724 502.132507,332.547638 
	C506.347504,318.301483 510.488037,304.055359 511.369141,288.445435 
	C512.158997,287.886658 512.579468,287.943329 513.000000,288.000000 
	C513.000000,362.926849 513.000000,437.853729 513.000000,513.000000 
	C438.645905,513.000000 364.291626,513.000000 289.468628,513.000000 
z"/>
<path fill="#057DCA" opacity="1.000000" stroke="none" 
	d="
M3.490635,292.826263 
	C2.659217,291.314026 2.171469,289.935333 1.341860,288.778320 
	C1.000000,269.312439 1.000000,249.624878 1.000005,229.468658 
	C1.901134,230.315216 3.327925,231.523773 3.619871,232.962616 
	C5.868032,244.042572 7.896257,255.167175 9.992481,266.277954 
	C10.565737,269.316437 11.138201,272.355042 12.443172,275.326874 
	C16.304800,258.447723 20.347099,241.606598 23.912802,224.665176 
	C24.921036,219.874847 26.768433,218.265488 31.730101,218.451508 
	C42.659386,218.861221 42.666485,218.575256 44.915966,229.567566 
	C48.044392,244.854965 51.178951,260.141113 54.452232,276.117706 
	C58.443550,256.563934 62.288498,237.727203 66.154015,218.789734 
	C71.608017,218.789734 76.572266,218.789734 82.177422,218.789734 
	C81.913498,220.362671 81.789894,221.764374 81.436607,223.105576 
	C75.720726,244.804947 70.021683,266.509033 64.185165,288.176056 
	C63.357124,291.250000 64.024345,295.440796 58.881073,295.949890 
	C52.249676,296.606262 47.086712,294.798676 44.713867,289.929352 
	C43.422459,287.279205 42.646229,284.318390 42.016808,281.415497 
	C39.074841,267.847229 36.264870,254.250366 33.146523,239.421661 
	C31.313087,247.234680 29.772648,253.950089 28.157015,260.647369 
	C25.935112,269.857819 23.671394,279.058228 21.397274,288.255981 
	C19.477531,296.020447 15.363494,298.115753 7.711424,295.161652 
	C6.340073,294.632263 5.122744,293.703918 3.490635,292.826263 
z"/>
<path fill="#FEC407" opacity="1.000000" stroke="none" 
	d="
M510.424255,225.470123 
	C511.280792,225.819016 511.776154,226.228592 512.635742,226.319092 
	C513.000000,231.022095 513.000000,236.044189 513.000000,241.533142 
	C508.333588,244.104385 503.569397,246.019928 499.030731,248.370941 
	C495.176636,250.367355 492.311707,249.630585 490.212830,246.051620 
	C488.187866,242.598663 489.118683,239.860184 492.488983,237.627945 
	C498.417206,233.701508 504.212311,229.574081 510.424255,225.470123 
z"/>
<path fill="#FEC407" opacity="1.000000" stroke="none" 
	d="
M513.000000,287.533875 
	C512.579468,287.943329 512.158997,287.886658 511.366516,288.002167 
	C504.109985,283.621002 497.062653,279.282349 490.499023,274.305664 
	C489.388885,273.463959 489.621277,269.476105 490.592438,267.674347 
	C491.461700,266.061584 494.729279,264.128784 496.031738,264.641418 
	C501.667480,266.859589 506.970581,269.923065 512.697327,272.839539 
	C513.000000,277.689240 513.000000,282.378510 513.000000,287.533875 
z"/>
<path fill="#067DCA" opacity="1.000000" stroke="none" 
	d="
M225.274994,249.687119 
	C219.229614,251.001160 216.899704,254.885834 216.829453,260.269806 
	C216.703369,269.933502 216.762833,279.599640 216.745987,289.264740 
	C216.742889,291.048248 216.745544,292.831726 216.745544,294.898804 
	C211.347076,294.898804 206.571594,294.898804 200.985611,294.898804 
	C200.985611,293.184143 200.990204,291.436249 200.984833,289.688354 
	C200.954651,279.856689 201.222549,270.012177 200.802231,260.197174 
	C200.414703,251.147812 193.133636,246.697311 186.683929,251.114304 
	C182.897644,253.707321 181.618652,257.514221 181.638382,261.943512 
	C181.678467,270.942322 181.656174,279.941437 181.659332,288.940430 
	C181.659958,290.744812 181.659424,292.549194 181.659424,294.768677 
	C176.326859,294.768677 171.451950,294.768677 166.230286,294.768677 
	C166.230286,276.049957 166.230286,257.307495 166.230286,238.156204 
	C170.887955,238.156204 175.583176,238.156204 180.614746,238.156204 
	C180.776749,240.027206 180.928223,241.776703 181.151947,244.360733 
	C185.885162,238.979065 191.282455,236.142639 197.977295,236.389923 
	C204.878036,236.644821 210.030273,239.798508 213.448273,246.110596 
	C215.919083,243.965225 218.070602,241.684814 220.603806,239.967392 
	C232.930939,231.610077 248.139572,237.819885 250.797791,252.664032 
	C251.989197,259.317169 251.706161,266.254517 251.857712,273.068115 
	C252.016220,280.194702 251.893112,287.327576 251.893112,294.819885 
	C246.570465,294.819885 241.673096,294.819885 236.075165,294.819885 
	C236.075165,286.850250 236.149078,278.914124 236.046371,270.980225 
	C235.988327,266.498260 236.075714,261.944458 235.315170,257.558716 
	C234.295517,251.678726 231.806931,249.974869 225.274994,249.687119 
z"/>
<path fill="#067ECA" opacity="1.000000" stroke="none" 
	d="
M113.674377,289.700104 
	C107.751938,295.324036 101.202896,297.745880 93.359917,296.114929 
	C86.390846,294.665680 81.660217,290.748810 79.721901,283.823425 
	C77.817581,277.019501 79.368713,270.965057 84.288544,265.903046 
	C89.307465,260.739044 95.872231,258.977570 102.713455,258.017883 
	C105.982071,257.559357 109.281509,257.320557 112.535301,256.985504 
	C112.559578,251.301483 110.159767,247.963730 104.837097,248.075714 
	C98.682556,248.205185 92.553329,249.537888 85.756462,250.434845 
	C85.089172,248.173615 84.168724,245.054474 83.111305,241.471191 
	C94.498703,236.277100 105.801704,234.093979 117.462936,239.000809 
	C125.431190,242.353683 128.551529,249.471909 128.818283,257.508789 
	C129.230850,269.939545 128.927063,282.394043 128.927063,295.418762 
	C124.834801,296.763000 120.904129,295.621796 117.452034,292.048676 
	C116.452705,291.014282 115.114388,290.307434 113.674377,289.700104 
M96.691467,282.731812 
	C101.210144,285.782898 105.503235,285.797119 109.494316,282.774200 
	C113.501686,279.738953 114.598396,274.315430 112.337257,267.352875 
	C109.012711,267.878510 105.488426,268.048187 102.210121,269.035034 
	C95.454071,271.068817 93.622330,275.385406 96.691467,282.731812 
z"/>
<path fill="#067DCA" opacity="1.000000" stroke="none" 
	d="
M261.370850,289.477417 
	C254.552795,277.447723 258.523193,265.452698 271.254517,260.849548 
	C277.714935,258.513672 284.753815,257.777588 291.673889,256.287537 
	C293.126282,247.942825 280.736847,244.306320 265.261719,251.746567 
	C264.219910,248.473984 263.199219,245.267853 261.996643,241.490311 
	C273.807007,236.096771 285.585144,233.844574 297.572021,239.653564 
	C305.321777,243.409164 307.743042,250.830933 307.901703,258.861969 
	C308.137878,270.817444 307.962891,282.781036 307.962891,295.346893 
	C301.890442,297.420441 297.518646,294.195007 293.852203,288.639252 
	C288.554626,294.178253 282.403961,296.994568 275.009735,296.464294 
	C269.650726,296.080048 264.975403,294.189423 261.370850,289.477417 
M274.009399,279.141357 
	C276.390778,284.902435 280.258759,286.574738 285.805603,284.241486 
	C291.876556,281.687714 293.890564,275.896667 291.357117,267.460663 
	C288.336914,267.858459 285.176727,268.004761 282.157227,268.733673 
	C277.237030,269.921448 273.671173,272.562531 274.009399,279.141357 
z"/>
<path fill="#037CC9" opacity="1.000000" stroke="none" 
	d="
M358.481201,222.383636 
	C359.550201,220.844025 360.529907,218.962036 361.694763,218.839432 
	C365.467346,218.442429 369.307892,218.691147 373.734741,218.691147 
	C373.734741,224.718292 373.734741,230.441544 373.734741,236.639435 
	C378.413696,236.639435 382.495911,236.639435 387.053955,236.639435 
	C387.053955,241.639679 387.053955,246.156860 387.053955,251.220490 
	C382.891907,251.220490 378.804779,251.220490 374.324371,251.220490 
	C374.324371,260.469452 374.074677,269.203552 374.446503,277.911163 
	C374.596649,281.427948 377.224701,283.431335 381.056213,283.240662 
	C382.843719,283.151733 384.639282,283.225464 386.716309,283.225464 
	C386.716309,287.163757 386.716309,290.919434 386.716309,295.541473 
	C382.257233,295.805695 377.794098,296.608887 373.439056,296.215454 
	C364.538391,295.411469 359.540527,290.262573 359.067932,281.262726 
	C358.562195,271.631042 358.714844,261.963531 358.631836,252.311218 
	C358.547363,242.490036 358.525818,232.668320 358.481201,222.383636 
z"/>
<path fill="#077ECA" opacity="1.000000" stroke="none" 
	d="
M139.272278,248.999939 
	C139.272354,238.728867 139.272354,228.957809 139.272354,218.885544 
	C144.759491,218.885544 149.664948,218.885544 154.789597,218.885544 
	C154.789597,244.255997 154.789597,269.330200 154.789597,294.797729 
	C149.764069,294.797729 144.878174,294.797729 139.272202,294.797729 
	C139.272202,279.676971 139.272202,264.588440 139.272278,248.999939 
z"/>
<path fill="#077ECA" opacity="1.000000" stroke="none" 
	d="
M318.225342,254.003342 
	C318.225403,248.534286 318.225403,243.564285 318.225403,238.174072 
	C323.000244,238.174072 327.380859,238.174072 332.225555,238.174072 
	C332.384735,240.855286 332.548187,243.607986 332.771210,247.364075 
	C337.548187,239.924194 342.975525,235.133087 351.891296,236.877045 
	C351.891296,241.840515 351.891296,246.457275 351.891296,250.960312 
	C351.426086,251.251511 351.152618,251.572144 350.877808,251.573257 
	C338.203186,251.624863 334.638733,255.102905 334.479187,267.922852 
	C334.367828,276.868530 334.457733,285.816772 334.457733,294.969269 
	C328.847382,294.969269 323.898407,294.969269 318.225250,294.969269 
	C318.225250,281.362366 318.225250,267.932373 318.225342,254.003342 
z"/>
<path fill="#FEC406" opacity="1.000000" stroke="none" 
	d="
M452.294312,238.910690 
	C455.150909,242.279861 453.830811,245.073715 451.676575,247.634903 
	C449.427307,250.309036 446.848541,249.627258 444.051453,248.291489 
	C435.227264,244.077301 426.302612,240.073929 417.460236,235.897095 
	C412.558350,233.581589 411.416504,228.932739 414.339325,223.879852 
	C417.316589,218.732803 421.709045,217.495087 426.323700,220.686203 
	C434.919678,226.630478 443.447510,232.673325 452.294312,238.910690 
z"/>
<path fill="#FEC405" opacity="1.000000" stroke="none" 
	d="
M463.993134,214.109650 
	C463.575714,208.849152 463.063904,204.056091 462.805511,199.249405 
	C462.500793,193.581985 465.651398,190.830704 471.961029,190.996246 
	C477.961670,191.153671 480.789734,194.025162 480.335297,199.512115 
	C479.526642,209.275665 478.656189,219.034592 477.927795,228.804092 
	C477.638123,232.689407 476.057892,235.071045 471.895935,235.218170 
	C467.546478,235.371887 465.517761,233.154160 465.209930,228.967987 
	C464.856873,224.165588 464.414459,219.369766 463.993134,214.109650 
z"/>
<path fill="#FEC406" opacity="1.000000" stroke="none" 
	d="
M429.388062,272.411621 
	C434.676331,269.926056 439.689575,267.729095 444.580963,265.288055 
	C448.339935,263.412170 450.969757,264.528839 452.898621,267.910950 
	C454.745850,271.149780 454.216797,273.798248 450.976624,276.018768 
	C442.630280,281.738678 434.423126,287.661469 426.083862,293.391876 
	C421.679565,296.418365 417.510162,295.142090 414.530609,290.107239 
	C411.460815,284.919922 412.476471,280.385529 417.332245,278.032349 
	C421.209412,276.153381 425.148804,274.402740 429.388062,272.411621 
z"/>
<path fill="#FEC405" opacity="1.000000" stroke="none" 
	d="
M465.071228,287.150330 
	C465.342285,283.180054 465.290436,279.522919 470.077728,278.790741 
	C474.804138,278.067871 477.432404,279.946869 477.859192,284.734680 
	C478.759460,294.833618 479.620941,304.936584 480.403320,315.045258 
	C480.774017,319.834961 477.335571,322.924957 471.763733,323.036621 
	C466.190704,323.148315 462.584961,320.304260 462.868439,315.430573 
	C463.408783,306.141174 464.300293,296.872253 465.071228,287.150330 
z"/>
<path fill="#EBEDEA" opacity="1.000000" stroke="none" 
	d="
M96.442017,282.419952 
	C93.622330,275.385406 95.454071,271.068817 102.210121,269.035034 
	C105.488426,268.048187 109.012711,267.878510 112.337257,267.352875 
	C114.598396,274.315430 113.501686,279.738953 109.494316,282.774200 
	C105.503235,285.797119 101.210144,285.782898 96.442017,282.419952 
z"/>
<path fill="#EBEDEA" opacity="1.000000" stroke="none" 
	d="
M273.972839,278.736450 
	C273.671173,272.562531 277.237030,269.921448 282.157227,268.733673 
	C285.176727,268.004761 288.336914,267.858459 291.357117,267.460663 
	C293.890564,275.896667 291.876556,281.687714 285.805603,284.241486 
	C280.258759,286.574738 276.390778,284.902435 273.972839,278.736450 
z"/>
</svg>