<svg version="1.1" id="Layer_1" xmlns="http://www.w3.org/2000/svg" xmlns:xlink="http://www.w3.org/1999/xlink" x="0px" y="0px"
	 width="100%" viewBox="0 0 512 512" enable-background="new 0 0 512 512" xml:space="preserve">
<path fill="#000000" opacity="1.000000" stroke="none" 
	d="
M513.000000,185.000000 
	C513.000000,294.640015 513.000000,403.780029 513.000000,512.960022 
	C342.401642,512.960022 171.803268,512.960022 1.102453,512.960022 
	C1.102453,342.443359 1.102453,171.886612 1.102453,1.164938 
	C171.666534,1.164938 342.333252,1.164938 513.000000,1.164938 
	C513.000000,62.196690 513.000000,123.348343 513.000000,185.000000 
M137.166580,129.986160 
	C136.257141,130.323074 135.360016,130.698883 134.436432,130.991119 
	C118.814842,135.933731 103.215332,140.948669 87.550743,145.751282 
	C82.699059,147.238754 79.617966,149.913803 78.987267,155.097626 
	C78.337303,160.439713 77.643158,165.776794 76.919899,171.109512 
	C75.295242,183.088394 73.580940,195.055420 72.018196,207.042267 
	C70.896408,215.646774 70.038651,224.285660 68.923492,232.891098 
	C67.349030,245.040833 65.593124,257.167053 64.015175,269.316345 
	C62.899036,277.909943 62.036076,286.536591 60.903988,295.127930 
	C59.346264,306.949341 57.572433,318.742310 56.021610,330.564575 
	C54.851940,339.481201 53.973934,348.436066 52.809120,357.353363 
	C51.287079,369.005463 49.606041,380.636780 48.001163,392.278107 
	C46.685104,401.824402 45.263927,411.358246 44.109432,420.924164 
	C43.265114,427.920013 42.778076,434.959015 41.981236,442.393738 
	C41.981236,442.393738 41.974159,442.835144 41.344467,443.252411 
	C41.276638,444.490173 41.208813,445.727936 40.995296,447.820312 
	C40.995296,449.097748 40.995296,450.375153 40.995296,451.624115 
	C50.779285,453.489655 60.050114,455.264404 69.323814,457.024017 
	C84.685448,459.938812 100.050835,462.833862 115.411125,465.755707 
	C131.576660,468.830750 147.723419,472.007019 163.905289,474.993134 
	C181.056625,478.158203 198.257233,481.057037 215.403519,484.248322 
	C230.450104,487.048767 245.442627,490.138519 260.474792,493.018127 
	C279.650696,496.691528 298.842499,500.282166 318.896118,504.020264 
	C324.245972,503.245483 329.660309,502.772156 334.934418,501.643433 
	C357.319153,496.852783 379.662292,491.867737 402.812195,487.026642 
	C403.573517,486.733093 404.311554,486.331268 405.099548,486.161896 
	C427.613312,481.322784 450.132050,476.506989 473.388458,471.529388 
	C472.596985,466.379944 471.779205,461.397003 471.071777,456.398468 
	C468.009033,434.758392 465.057251,413.102264 461.913116,391.474060 
	C459.054565,371.810303 455.954712,352.181702 453.049866,332.524506 
	C451.511169,322.112183 450.245911,311.659393 448.703461,301.247650 
	C446.897827,289.059265 444.841034,276.907990 443.050049,264.717560 
	C441.519867,254.302460 440.327942,243.837387 438.774536,233.426041 
	C436.980988,221.404846 434.833252,209.436264 433.061340,197.412125 
	C430.878540,182.599579 428.993591,167.743332 426.852905,152.924332 
	C424.667633,137.796387 422.240051,122.703041 420.122314,107.566048 
	C419.630951,104.054039 418.235291,102.125603 414.632629,101.959869 
	C410.289734,101.760078 405.940765,101.612244 401.609406,101.258598 
	C393.755890,100.617378 385.913513,99.840485 377.382629,98.951637 
	C376.112061,97.924492 374.741486,96.998199 373.587006,95.853951 
	C365.679321,88.016205 357.855347,80.093681 349.918671,72.285629 
	C347.210480,69.621330 344.324219,67.043068 339.152069,68.005325 
	C333.110138,69.621231 327.068207,71.237137 321.061554,72.094177 
	C319.404846,67.828178 317.964050,63.462429 316.048492,59.316032 
	C311.437683,49.335762 305.320526,40.328819 296.802948,33.297073 
	C289.699738,27.432928 280.894409,25.999165 272.013275,24.911192 
	C269.880646,24.649933 267.391266,23.622227 265.943878,22.107912 
	C260.786926,16.712551 255.320877,11.620730 247.756409,10.573947 
	C242.661987,9.868974 237.315460,10.539313 232.127090,11.052856 
	C221.358871,12.118690 211.247482,15.194297 202.048431,21.175713 
	C181.701874,34.405491 168.592239,53.534691 157.862244,74.673882 
	C148.954941,92.222176 142.934402,110.809982 137.166580,129.986160 
z"/>
<path fill="#79B259" opacity="1.000000" stroke="none" 
	d="
M321.026276,72.853043 
	C327.068207,71.237137 333.110138,69.621231 339.488220,68.417542 
	C338.524048,75.310051 336.466644,81.744148 336.067932,88.279434 
	C334.952972,106.554382 334.589264,124.873955 333.809296,143.170822 
	C332.589844,171.777573 331.261139,200.379639 329.999725,228.984619 
	C329.244263,246.116379 328.548309,263.250763 327.790985,280.382477 
	C326.541138,308.654724 325.250824,336.925232 324.001984,365.197540 
	C323.245239,382.328949 322.539795,399.462677 321.801636,416.594910 
	C320.547577,445.699646 319.285889,474.803986 318.027435,503.908508 
	C298.842499,500.282166 279.650696,496.691528 260.474792,493.018127 
	C245.442627,490.138519 230.450104,487.048767 215.403519,484.248322 
	C198.257233,481.057037 181.056625,478.158203 163.905289,474.993134 
	C147.723419,472.007019 131.576660,468.830750 115.411125,465.755707 
	C100.050835,462.833862 84.685448,459.938812 69.323814,457.024017 
	C60.050114,455.264404 50.779285,453.489655 40.995296,451.624115 
	C40.995296,450.375153 40.995296,449.097748 41.227516,447.076111 
	C41.631210,445.166321 41.802685,444.000732 41.974159,442.835144 
	C41.974159,442.835144 41.981236,442.393738 42.248222,441.875916 
	C43.058208,439.442627 43.730797,437.553345 44.124397,435.607635 
	C48.617046,413.399139 53.100559,391.188751 57.522121,368.966034 
	C69.128181,310.634125 80.742294,252.303726 92.229225,193.948334 
	C93.418655,187.905853 96.247017,183.768585 102.361275,182.410187 
	C106.624413,181.463043 109.394653,178.976837 111.264214,175.139832 
	C112.281975,173.051041 113.607162,171.107544 114.848320,169.132828 
	C124.379272,153.968765 134.204086,139.117615 151.011566,130.724731 
	C152.184631,130.138962 152.228073,127.291031 153.099640,125.337578 
	C155.307755,124.410095 157.213058,123.640091 159.505081,122.891296 
	C163.143829,121.924423 166.416428,120.998848 169.643936,119.936317 
	C178.738037,116.942467 187.813644,113.892342 197.306961,110.905991 
	C204.183014,108.925446 210.648621,106.903313 217.496429,104.901955 
	C218.790726,104.605942 219.696243,104.268478 220.615906,103.975418 
	C235.371964,99.273239 250.129852,94.576714 265.295593,89.901466 
	C271.141418,88.238396 276.579041,86.552757 282.400085,84.901665 
	C290.144806,82.576653 297.506104,80.217110 305.260406,77.835793 
	C310.777710,76.160362 315.901978,74.506699 321.026276,72.853043 
M221.627731,296.935303 
	C219.759766,295.306549 217.947540,293.608093 216.014297,292.060913 
	C207.056320,284.891876 197.695633,278.175507 189.177750,270.519745 
	C178.292252,260.735962 183.034149,244.380905 192.322754,238.692719 
	C198.986755,234.611786 206.065765,233.211716 213.285690,233.140106 
	C226.268051,233.011322 238.806534,235.944687 250.606918,241.625931 
	C256.682251,223.345505 262.712341,205.201157 269.154694,185.816360 
	C259.810425,183.789520 251.190445,180.817276 242.414398,180.247101 
	C224.471619,179.081299 206.667038,180.224655 189.509415,186.941391 
	C168.153000,195.301849 151.943878,209.179092 141.788818,229.745056 
	C134.978271,243.537750 131.932922,258.151581 132.890900,273.695129 
	C133.352081,281.177917 134.657486,288.192932 137.525452,295.105774 
	C143.889740,310.446136 156.840057,319.728302 168.831070,329.938965 
	C176.620743,336.572052 183.722061,343.300293 186.353989,354.142181 
	C189.078873,365.366974 181.174469,380.216949 166.911041,378.836670 
	C159.573685,378.126587 151.992157,376.421509 145.300873,373.424652 
	C136.504257,369.484894 128.475922,363.829742 120.206215,358.964630 
	C117.408516,368.087799 114.499924,377.409393 111.698410,386.763031 
	C109.680710,393.499725 105.160110,400.648132 114.378395,405.842682 
	C115.368721,406.400726 116.336601,407.019867 117.238548,407.710358 
	C139.069565,424.424042 163.497223,431.906708 190.933594,427.942657 
	C216.857162,424.197113 233.704681,409.041443 243.345444,385.191498 
	C248.841278,371.595520 250.499130,357.262085 248.682022,342.992096 
	C246.308640,324.353546 236.339386,309.396576 221.627731,296.935303 
z"/>
<path fill="#4C822A" opacity="1.000000" stroke="none" 
	d="
M318.461792,503.964386 
	C319.285889,474.803986 320.547577,445.699646 321.801636,416.594910 
	C322.539795,399.462677 323.245239,382.328949 324.001984,365.197540 
	C325.250824,336.925232 326.541138,308.654724 327.790985,280.382477 
	C328.548309,263.250763 329.244263,246.116379 329.999725,228.984619 
	C331.261139,200.379639 332.589844,171.777573 333.809296,143.170822 
	C334.589264,124.873955 334.952972,106.554382 336.067932,88.279434 
	C336.466644,81.744148 338.524048,75.310051 339.903107,68.474831 
	C344.324219,67.043068 347.210480,69.621330 349.918671,72.285629 
	C357.855347,80.093681 365.679321,88.016205 373.587006,95.853951 
	C374.741486,96.998199 376.112061,97.924492 378.032654,99.212784 
	C379.773315,100.967567 381.701904,102.397217 381.821594,103.964973 
	C382.745270,116.063118 383.370239,128.185364 383.987610,140.305252 
	C384.757355,155.416306 385.379486,170.534897 386.158539,185.645447 
	C387.399567,209.716751 388.739716,233.782944 389.994629,257.853546 
	C390.756348,272.465210 391.397705,287.083191 392.162079,301.694733 
	C393.412537,325.599091 394.739197,349.499420 395.994690,373.403503 
	C396.753387,387.848816 397.394592,402.300354 398.166595,416.744934 
	C399.417542,440.149628 400.732635,463.550964 402.020630,486.953674 
	C379.662292,491.867737 357.319153,496.852783 334.934418,501.643433 
	C329.660309,502.772156 324.245972,503.245483 318.461792,503.964386 
z"/>
<path fill="#55932C" opacity="1.000000" stroke="none" 
	d="
M402.416412,486.990173 
	C400.732635,463.550964 399.417542,440.149628 398.166595,416.744934 
	C397.394592,402.300354 396.753387,387.848816 395.994690,373.403503 
	C394.739197,349.499420 393.412537,325.599091 392.162079,301.694733 
	C391.397705,287.083191 390.756348,272.465210 389.994629,257.853546 
	C388.739716,233.782944 387.399567,209.716751 386.158539,185.645447 
	C385.379486,170.534897 384.757355,155.416306 383.987610,140.305252 
	C383.370239,128.185364 382.745270,116.063118 381.821594,103.964973 
	C381.701904,102.397217 379.773315,100.967567 378.374573,99.297081 
	C385.913513,99.840485 393.755890,100.617378 401.609406,101.258598 
	C405.940765,101.612244 410.289734,101.760078 414.632629,101.959869 
	C418.235291,102.125603 419.630951,104.054039 420.122314,107.566048 
	C422.240051,122.703041 424.667633,137.796387 426.852905,152.924332 
	C428.993591,167.743332 430.878540,182.599579 433.061340,197.412125 
	C434.833252,209.436264 436.980988,221.404846 438.774536,233.426041 
	C440.327942,243.837387 441.519867,254.302460 443.050049,264.717560 
	C444.841034,276.907990 446.897827,289.059265 448.703461,301.247650 
	C450.245911,311.659393 451.511169,322.112183 453.049866,332.524506 
	C455.954712,352.181702 459.054565,371.810303 461.913116,391.474060 
	C465.057251,413.102264 468.009033,434.758392 471.071777,456.398468 
	C471.779205,461.397003 472.596985,466.379944 473.388458,471.529388 
	C450.132050,476.506989 427.613312,481.322784 405.099548,486.161896 
	C404.311554,486.331268 403.573517,486.733093 402.416412,486.990173 
z"/>
<path fill="#4C7C2D" opacity="1.000000" stroke="none" 
	d="
M159.118347,122.870087 
	C157.213058,123.640091 155.307755,124.410095 152.725235,125.454178 
	C147.338516,127.073669 142.629028,128.419083 137.919540,129.764496 
	C142.934402,110.809982 148.954941,92.222176 157.862244,74.673882 
	C168.592239,53.534691 181.701874,34.405491 202.048431,21.175713 
	C211.247482,15.194297 221.358871,12.118690 232.127090,11.052856 
	C237.315460,10.539313 242.661987,9.868974 247.756409,10.573947 
	C255.320877,11.620730 260.786926,16.712551 265.943878,22.107912 
	C267.391266,23.622227 269.880646,24.649933 272.013275,24.911192 
	C280.894409,25.999165 289.699738,27.432928 296.802948,33.297073 
	C305.320526,40.328819 311.437683,49.335762 316.048492,59.316032 
	C317.964050,63.462429 319.404846,67.828178 321.043915,72.473602 
	C315.901978,74.506699 310.777710,76.160362 305.093933,77.518082 
	C299.091156,63.428864 294.108795,49.281994 279.027374,43.170151 
	C280.027954,57.126995 281.022278,70.997063 282.016632,84.867126 
	C276.579041,86.552757 271.141418,88.238396 265.314209,89.448166 
	C264.741852,74.459312 263.512238,60.111794 258.470917,46.047371 
	C246.906830,51.797649 238.436111,60.197502 231.824326,70.708694 
	C225.131256,81.349113 220.652405,92.903069 217.114243,104.881165 
	C210.648621,106.903313 204.183014,108.925446 197.315598,110.492195 
	C198.900314,102.235077 200.457397,94.292984 202.953079,86.657692 
	C210.738190,62.839870 223.966599,43.013721 246.921448,29.552532 
	C244.171585,28.918142 242.181305,28.113728 240.167725,28.050423 
	C226.988602,27.636091 215.737366,32.821327 205.850479,40.944763 
	C192.272430,52.100964 182.525864,66.414436 175.265686,82.176125 
	C169.169037,95.411804 164.448257,109.281235 159.118347,122.870087 
z"/>
<path fill="#95C675" opacity="1.000000" stroke="none" 
	d="
M137.543060,129.875336 
	C142.629028,128.419083 147.338516,127.073669 152.422394,125.611664 
	C152.228073,127.291031 152.184631,130.138962 151.011566,130.724731 
	C134.204086,139.117615 124.379272,153.968765 114.848320,169.132828 
	C113.607162,171.107544 112.281975,173.051041 111.264214,175.139832 
	C109.394653,178.976837 106.624413,181.463043 102.361275,182.410187 
	C96.247017,183.768585 93.418655,187.905853 92.229225,193.948334 
	C80.742294,252.303726 69.128181,310.634125 57.522121,368.966034 
	C53.100559,391.188751 48.617046,413.399139 44.124397,435.607635 
	C43.730797,437.553345 43.058208,439.442627 42.323494,441.668457 
	C42.778076,434.959015 43.265114,427.920013 44.109432,420.924164 
	C45.263927,411.358246 46.685104,401.824402 48.001163,392.278107 
	C49.606041,380.636780 51.287079,369.005463 52.809120,357.353363 
	C53.973934,348.436066 54.851940,339.481201 56.021610,330.564575 
	C57.572433,318.742310 59.346264,306.949341 60.903988,295.127930 
	C62.036076,286.536591 62.899036,277.909943 64.015175,269.316345 
	C65.593124,257.167053 67.349030,245.040833 68.923492,232.891098 
	C70.038651,224.285660 70.896408,215.646774 72.018196,207.042267 
	C73.580940,195.055420 75.295242,183.088394 76.919899,171.109512 
	C77.643158,165.776794 78.337303,160.439713 78.987267,155.097626 
	C79.617966,149.913803 82.699059,147.238754 87.550743,145.751282 
	C103.215332,140.948669 118.814842,135.933731 134.436432,130.991119 
	C135.360016,130.698883 136.257141,130.323074 137.543060,129.875336 
z"/>
<path fill="#95C675" opacity="1.000000" stroke="none" 
	d="
M41.659309,443.043762 
	C41.802685,444.000732 41.631210,445.166321 41.300362,446.648804 
	C41.208813,445.727936 41.276638,444.490173 41.659309,443.043762 
z"/>
<path fill="#000000" opacity="1.000000" stroke="none" 
	d="
M221.977570,297.013245 
	C236.339386,309.396576 246.308640,324.353546 248.682022,342.992096 
	C250.499130,357.262085 248.841278,371.595520 243.345444,385.191498 
	C233.704681,409.041443 216.857162,424.197113 190.933594,427.942657 
	C163.497223,431.906708 139.069565,424.424042 117.238548,407.710358 
	C116.336601,407.019867 115.368721,406.400726 114.378395,405.842682 
	C105.160110,400.648132 109.680710,393.499725 111.698410,386.763031 
	C114.499924,377.409393 117.408516,368.087799 120.206215,358.964630 
	C128.475922,363.829742 136.504257,369.484894 145.300873,373.424652 
	C151.992157,376.421509 159.573685,378.126587 166.911041,378.836670 
	C181.174469,380.216949 189.078873,365.366974 186.353989,354.142181 
	C183.722061,343.300293 176.620743,336.572052 168.831070,329.938965 
	C156.840057,319.728302 143.889740,310.446136 137.525452,295.105774 
	C134.657486,288.192932 133.352081,281.177917 132.890900,273.695129 
	C131.932922,258.151581 134.978271,243.537750 141.788818,229.745056 
	C151.943878,209.179092 168.153000,195.301849 189.509415,186.941391 
	C206.667038,180.224655 224.471619,179.081299 242.414398,180.247101 
	C251.190445,180.817276 259.810425,183.789520 269.154694,185.816360 
	C262.712341,205.201157 256.682251,223.345505 250.606918,241.625931 
	C238.806534,235.944687 226.268051,233.011322 213.285690,233.140106 
	C206.065765,233.211716 198.986755,234.611786 192.322754,238.692719 
	C183.034149,244.380905 178.292252,260.735962 189.177750,270.519745 
	C197.695633,278.175507 207.056320,284.891876 216.014297,292.060913 
	C217.947540,293.608093 219.759766,295.306549 221.977570,297.013245 
z"/>
<path fill="#000000" opacity="1.000000" stroke="none" 
	d="
M159.505096,122.891296 
	C164.448257,109.281235 169.169037,95.411804 175.265686,82.176125 
	C182.525864,66.414436 192.272430,52.100964 205.850479,40.944763 
	C215.737366,32.821327 226.988602,27.636091 240.167725,28.050423 
	C242.181305,28.113728 244.171585,28.918142 246.921448,29.552532 
	C223.966599,43.013721 210.738190,62.839870 202.953079,86.657692 
	C200.457397,94.292984 198.900314,102.235077 196.905167,110.450600 
	C187.813644,113.892342 178.738037,116.942467 169.643936,119.936317 
	C166.416428,120.998848 163.143829,121.924423 159.505096,122.891296 
z"/>
<path fill="#000000" opacity="1.000000" stroke="none" 
	d="
M217.496429,104.901947 
	C220.652405,92.903069 225.131256,81.349113 231.824326,70.708694 
	C238.436111,60.197502 246.906830,51.797649 258.470917,46.047371 
	C263.512238,60.111794 264.741852,74.459312 264.905945,89.425613 
	C250.129852,94.576714 235.371964,99.273239 220.615906,103.975418 
	C219.696243,104.268478 218.790726,104.605942 217.496429,104.901947 
z"/>
<path fill="#000000" opacity="1.000000" stroke="none" 
	d="
M282.400085,84.901665 
	C281.022278,70.997063 280.027954,57.126995 279.027374,43.170151 
	C294.108795,49.281994 299.091156,63.428864 304.700928,77.539856 
	C297.506104,80.217110 290.144806,82.576653 282.400085,84.901665 
z"/>
</svg>