<svg xmlns="http://www.w3.org/2000/svg" viewBox="0 0 512 512" xml:space="preserve">
  <path fill="#F0EFEB" d="M1 229c0-1.067 0-2.133.354-3.283.778-.75 1.463-1.375 1.584-2.094 1.076-6.391 1.9-12.827 3.084-19.197 5.097-27.451 15.353-53.06 29.336-77.035 14.589-25.013 33.216-46.843 55.346-65.663 18.437-15.68 38.521-28.618 60.617-38.547 22.93-10.304 46.724-17.322 71.714-20.258.72-.085 1.313-1.258 1.965-1.923 21.02 0 42.042 0 63.214.355.986.784 1.777 1.42 2.663 1.61 13.85 2.981 27.868 5.324 41.533 8.986 18.041 4.835 34.945 12.59 51.21 21.88 15.81 9.031 30.77 19.259 44.038 31.605 10.489 9.76 20.581 20.186 29.368 31.47 9.865 12.67 18.827 26.2 26.798 40.147 10.046 17.577 17.085 36.625 21.764 56.343 2.49 10.492 3.512 21.331 4.836 32.074-6.212 4.104-12.007 8.232-17.935 12.158-3.37 2.232-4.301 4.97-2.276 8.424 2.099 3.579 4.964 4.315 8.818 2.319 4.538-2.351 9.303-4.267 13.969-6.371 0 10.02 0 20.042-.303 30.37-5.726-2.447-11.03-5.51-16.665-7.729-1.303-.512-4.57 1.42-5.44 3.033-.97 1.802-1.203 5.79-.093 6.632 6.564 4.976 13.611 9.315 20.498 14.312-.509 15.437-4.65 29.683-8.864 43.93-5.21 17.607-12.503 34.29-21.47 50.301-8.887 15.869-19.032 30.965-31.456 44.119-11.621 12.304-24.214 23.87-37.43 34.446-20.074 16.065-42.61 28.096-66.953 36.66-17.697 6.224-35.623 11.323-54.393 13.022-.53.048-.956 1.243-1.431 1.904-21.02 0-42.042 0-63.223-.359-1-.784-1.795-1.414-2.685-1.607-13.99-3.033-28.134-5.472-41.955-9.136-17.729-4.7-34.297-12.414-50.286-21.44-15.834-8.938-30.807-19.155-44.076-31.481-10.615-9.86-20.856-20.38-29.714-31.809-10.024-12.931-18.95-26.835-27.197-40.99-9.303-15.967-15.686-33.372-20.335-51.255-2.75-10.582-4.295-21.476-6.038-32.097 1.632.878 2.85 1.806 4.22 2.336 7.652 2.954 11.767.858 13.686-6.906a5012 5012 0 0 0 6.76-27.609c1.616-6.697 3.156-13.412 4.99-21.225 3.118 14.828 5.928 28.425 8.87 41.993.63 2.903 1.405 5.864 2.697 8.514 2.373 4.87 7.536 6.677 14.167 6.02 5.143-.508 4.476-4.699 5.304-7.773 5.837-21.667 11.536-43.371 17.252-65.07.353-1.342.476-2.743.74-4.316H66.154l-11.702 57.328c-3.273-15.977-6.408-31.263-9.536-46.55-2.25-10.993-2.257-10.707-13.186-11.116-4.962-.187-6.809 1.423-7.817 6.213-3.566 16.942-7.608 33.783-11.47 50.662-1.305-2.972-1.877-6.01-2.45-9.049-2.097-11.11-4.125-22.235-6.373-33.315-.292-1.44-1.72-2.648-2.62-3.963m224.688 20.62c6.119.355 8.608 2.059 9.627 7.939.76 4.385.673 8.94.731 13.421.103 7.934.03 15.87.03 23.84h15.817c0-7.492.123-14.625-.035-21.752-.152-6.813.131-13.75-1.06-20.404-2.658-14.844-17.867-21.054-30.194-12.697-2.533 1.718-4.685 3.998-7.156 6.144-3.418-6.312-8.57-9.466-15.47-9.721-6.696-.247-12.093 2.59-16.826 7.97l-.537-6.204H166.23v56.613h15.43v-5.829c-.004-8.999.018-17.998-.022-26.996-.02-4.43 1.26-8.237 5.046-10.83 6.45-4.417 13.73.034 14.118 9.083.42 9.815.153 19.66.183 29.491.005 1.748 0 3.496 0 5.21h15.76c0-2.066-.002-3.85.001-5.633.017-9.665-.043-19.331.083-28.995.07-5.384 2.4-9.269 8.859-10.65m-111.757 39.83c1.183.857 2.522 1.564 3.521 2.599 3.452 3.573 7.383 4.714 11.475 3.37 0-13.025.304-25.48-.109-37.91-.266-8.037-3.387-15.155-11.355-18.508-11.661-4.907-22.964-2.724-34.352 2.47l2.645 8.964c6.797-.897 12.927-2.23 19.081-2.36 5.323-.111 7.723 3.226 7.698 8.91-3.253.336-6.553.574-9.822 1.033-6.84.96-13.406 2.721-18.424 7.885-4.92 5.062-6.471 11.117-4.567 17.92 1.938 6.926 6.669 10.843 13.638 12.292 7.843 1.63 14.392-.791 20.571-6.665m147.663.324c3.381 4.415 8.057 6.306 13.416 6.69 7.394.53 13.545-2.286 18.842-7.825 3.667 5.556 8.038 8.781 14.11 6.708 0-12.566.176-24.53-.06-36.485-.159-8.031-2.58-15.453-10.33-19.208-11.987-5.81-23.765-3.557-35.575 1.836l3.265 10.257c15.475-7.44 27.864-3.804 26.412 4.54-6.92 1.49-13.96 2.227-20.42 4.563-12.73 4.603-16.701 16.598-9.66 28.924m96.883-66.927c.049 9.821.07 19.643.155 29.464.083 9.653-.07 19.32.436 28.952.473 9 5.47 14.148 14.371 14.952 4.355.394 8.818-.41 13.277-.674v-12.316c-2.077 0-3.872-.073-5.66.016-3.831.19-6.46-1.813-6.61-5.33-.371-8.707-.122-17.442-.122-26.69h12.73v-14.582h-13.32v-17.948c-4.426 0-8.267-.249-12.04.148-1.164.123-2.144 2.005-3.217 4.008M139.272 249.5v45.298h15.518v-75.912h-15.518zm178.953 5.002v40.467h16.233c0-9.152-.09-18.1.021-27.046.16-12.82 3.724-16.298 16.399-16.35.275 0 .548-.321 1.013-.613v-14.083c-8.915-1.744-14.343 3.047-19.12 10.487l-.545-9.19h-14zm133.778-15.827c-8.556-6.002-17.084-12.045-25.68-17.989-4.615-3.19-9.007-1.953-11.985 3.194-2.922 5.053-1.78 9.702 3.121 12.017 8.843 4.177 17.767 8.18 26.591 12.394 2.798 1.336 5.376 2.018 7.626-.656 2.154-2.561 3.474-5.355.327-8.96m12.007-24.104c.403 4.799.846 9.595 1.199 14.397.308 4.186 2.336 6.404 6.686 6.25 4.162-.147 5.742-2.529 6.032-6.414.728-9.77 1.599-19.528 2.407-29.292.455-5.487-2.373-8.358-8.374-8.516-6.31-.165-9.46 2.586-9.155 8.253.258 4.807.77 9.6 1.205 15.322m-34.95 58.024c-3.912 1.808-7.852 3.558-11.729 5.437-4.856 2.354-5.871 6.888-2.801 12.075 2.98 5.035 7.149 6.311 11.553 3.285 8.34-5.73 16.546-11.653 24.893-17.373 3.24-2.22 3.769-4.87 1.922-8.108-1.93-3.382-4.56-4.499-8.318-2.623-4.891 2.441-9.905 4.638-15.52 7.307m35.985 15c-.746 9.277-1.637 18.546-2.178 27.836-.283 4.873 3.323 7.717 8.896 7.606 5.572-.112 9.01-3.202 8.64-7.992a2607 2607 0 0 0-2.545-30.31c-.427-4.788-3.055-6.667-7.781-5.944-4.788.732-4.736 4.39-5.032 8.804"/>
  <path d="M224.531 1c-.183.665-.776 1.838-1.496 1.923-24.99 2.936-48.784 9.954-71.714 20.258-22.096 9.929-42.18 22.867-60.617 38.547-22.13 18.82-40.757 40.65-55.346 65.663-13.983 23.975-24.239 49.584-29.336 77.035-1.183 6.37-2.008 12.806-3.084 19.197-.12.72-.806 1.344-1.584 1.695C1 150.406 1 75.813 1 1zM3.147 292.693c2.087 10.754 3.632 21.648 6.382 32.23 4.65 17.883 11.032 35.288 20.335 51.255 8.247 14.155 17.173 28.059 27.197 40.99 8.858 11.428 19.099 21.948 29.714 31.809 13.269 12.326 28.242 22.543 44.076 31.481 15.99 9.026 32.557 16.74 50.286 21.44 13.82 3.664 27.965 6.103 41.955 9.136.89.193 1.685.823 2.216 1.607C150.406 513 75.813 513 1 513c0-74.354 0-148.708.342-223.753.83.688 1.317 2.067 1.805 3.446m507.638-67.283c-1.685-10.683-2.708-21.522-5.197-32.014-4.68-19.718-11.718-38.766-21.764-56.343-7.97-13.947-16.933-27.478-26.798-40.147-8.787-11.284-18.88-21.71-29.368-31.47C414.39 53.09 399.43 42.862 383.62 33.832c-16.266-9.29-33.17-17.046-51.211-21.881-13.665-3.662-27.683-6.005-41.533-8.986-.886-.19-1.677-.826-2.195-1.61C363.594 1 438.188 1 513 1c0 74.687 0 149.375-.364 224.85-.86.379-1.355-.031-1.85-.44M289.469 513c.006-.66.432-1.856.962-1.904 18.77-1.699 36.696-6.798 54.393-13.023 24.344-8.563 46.88-20.594 66.953-36.659 13.216-10.577 25.809-22.142 37.43-34.446 12.424-13.154 22.569-28.25 31.456-44.119 8.967-16.012 16.26-32.694 21.47-50.301 4.215-14.247 8.355-28.493 9.236-44.103.79-.558 1.21-.502 1.631-.445v225z"/>
  <path fill="#057DCA" d="M3.49 292.826c-.83-1.512-1.319-2.89-2.148-4.048C1 269.312 1 249.625 1 229.468c.901.847 2.328 2.056 2.62 3.495 2.248 11.08 4.276 22.204 6.372 33.315.574 3.038 1.146 6.077 2.451 9.049 3.862-16.88 7.904-33.72 11.47-50.662 1.008-4.79 2.855-6.4 7.817-6.213 10.93.41 10.936.123 13.186 11.116 3.128 15.287 6.263 30.573 9.536 46.55l11.702-57.328h16.023c-.264 1.573-.387 2.974-.74 4.316-5.716 21.699-11.415 43.403-17.252 65.07-.828 3.074-.16 7.265-5.304 7.774-6.631.656-11.794-1.151-14.167-6.02-1.292-2.65-2.068-5.612-2.697-8.515-2.942-13.568-5.752-27.165-8.87-41.993-1.834 7.813-3.374 14.528-4.99 21.225a5047 5047 0 0 1-6.76 27.609c-1.92 7.764-6.034 9.86-13.686 6.906-1.37-.53-2.588-1.458-4.22-2.336"/>
  <path fill="#FEC407" d="M510.424 225.47c.857.349 1.352.759 2.212.85.364 4.702.364 9.724.364 15.213-4.666 2.571-9.43 4.487-13.97 6.838-3.853 1.996-6.718 1.26-8.817-2.32-2.025-3.452-1.094-6.19 2.276-8.423 5.928-3.926 11.723-8.054 17.935-12.158M513 287.534c-.42.41-.841.353-1.633.468-7.257-4.381-14.304-8.72-20.868-13.696-1.11-.842-.878-4.83.093-6.632.87-1.612 4.137-3.545 5.44-3.033 5.635 2.219 10.939 5.282 16.665 8.199.303 4.85.303 9.539.303 14.694"/>
  <path fill="#067DCA" d="M225.275 249.687c-6.045 1.314-8.375 5.199-8.446 10.583-.126 9.664-.066 19.33-.083 28.995-.003 1.783 0 3.567 0 5.634h-15.76c0-1.715.004-3.463-.001-5.21-.03-9.832.238-19.677-.183-29.492-.387-9.05-7.668-13.5-14.118-9.083-3.786 2.593-5.065 6.4-5.046 10.83.04 8.998.018 17.997.021 26.996v5.829H166.23v-56.613h14.385l.537 6.205c4.733-5.382 10.13-8.218 16.825-7.971 6.901.255 12.053 3.409 15.471 9.72 2.471-2.145 4.623-4.425 7.156-6.143 12.327-8.357 27.536-2.147 30.194 12.697 1.191 6.653.908 13.59 1.06 20.404.158 7.127.035 14.26.035 21.752h-15.818c0-7.97.074-15.906-.029-23.84-.058-4.482.03-9.036-.73-13.421-1.02-5.88-3.51-7.584-10.041-7.872"/>
  <path fill="#067ECA" d="M113.674 289.7c-5.922 5.624-12.471 8.046-20.314 6.415-6.97-1.45-11.7-5.366-13.638-12.292-1.904-6.803-.353-12.858 4.567-17.92 5.018-5.164 11.583-6.925 18.424-7.885 3.27-.459 6.569-.697 9.822-1.032.025-5.685-2.375-9.022-7.698-8.91-6.154.13-12.284 1.462-19.08 2.359l-2.646-8.964c11.388-5.194 22.69-7.377 34.352-2.47 7.968 3.353 11.089 10.47 11.355 18.508.413 12.43.11 24.885.11 37.91-4.093 1.344-8.024.203-11.476-3.37-1-1.035-2.338-1.742-3.778-2.349m-16.983-6.968c4.52 3.05 8.812 3.065 12.803.042 4.008-3.035 5.104-8.459 2.843-15.421-3.324.526-6.849.695-10.127 1.682-6.756 2.034-8.588 6.35-5.519 13.697"/>
  <path fill="#067DCA" d="M261.37 289.477c-6.817-12.03-2.847-24.024 9.885-28.627 6.46-2.336 13.499-3.072 20.419-4.562 1.452-8.345-10.937-11.982-26.412-4.541l-3.265-10.257c11.81-5.393 23.588-7.645 35.575-1.836 7.75 3.755 10.171 11.177 10.33 19.208.236 11.955.06 23.919.06 36.485-6.072 2.073-10.443-1.152-14.11-6.708-5.297 5.54-11.448 8.356-18.842 7.825-5.36-.384-10.035-2.275-13.64-6.987m12.64-10.336c2.38 5.761 6.249 7.434 11.796 5.1 6.07-2.553 8.085-8.344 5.551-16.78-3.02.397-6.18.544-9.2 1.273-4.92 1.187-8.486 3.829-8.148 10.407"/>
  <path fill="#037CC9" d="M358.481 222.384c1.07-1.54 2.049-3.422 3.214-3.545 3.772-.397 7.613-.148 12.04-.148v17.948h13.319v14.581h-12.73c0 9.25-.25 17.984.123 26.691.15 3.517 2.778 5.52 6.61 5.33 1.787-.09 3.582-.016 5.66-.016v12.316c-4.46.265-8.923 1.068-13.278.674-8.9-.804-13.898-5.952-14.371-14.952-.506-9.632-.353-19.3-.436-28.952-.085-9.821-.106-19.643-.15-29.927"/>
  <path fill="#077ECA" d="M139.272 249v-30.114h15.518v75.912h-15.518zm178.953 5.003v-15.829h14l.546 9.19c4.777-7.44 10.205-12.23 19.12-10.487v14.083c-.465.292-.738.612-1.013.613-12.675.052-16.24 3.53-16.399 16.35-.111 8.946-.021 17.894-.021 27.046h-16.233z"/>
  <path fill="#FEC406" d="M452.294 238.91c2.857 3.37 1.537 6.164-.617 8.725-2.25 2.674-4.828 1.992-7.626.656-8.824-4.214-17.748-8.217-26.59-12.394-4.903-2.315-6.044-6.964-3.122-12.017 2.978-5.147 7.37-6.385 11.985-3.194 8.596 5.944 17.124 11.987 25.97 18.225"/>
  <path fill="#FEC405" d="M463.993 214.11c-.417-5.26-.93-10.054-1.187-14.86-.305-5.668 2.845-8.42 9.155-8.254 6 .158 8.829 3.03 8.374 8.516-.808 9.764-1.679 19.523-2.407 29.292-.29 3.885-1.87 6.267-6.032 6.414-4.35.154-6.378-2.064-6.686-6.25-.353-4.802-.796-9.598-1.217-14.858"/>
  <path fill="#FEC406" d="M429.388 272.412c5.288-2.486 10.302-4.683 15.193-7.124 3.759-1.876 6.389-.76 8.318 2.623 1.847 3.239 1.318 5.887-1.922 8.108-8.347 5.72-16.554 11.642-24.893 17.373-4.404 3.026-8.574 1.75-11.553-3.285-3.07-5.187-2.055-9.721 2.801-12.075 3.877-1.879 7.817-3.63 12.056-5.62"/>
  <path fill="#FEC405" d="M465.071 287.15c.271-3.97.22-7.627 5.007-8.36 4.726-.722 7.354 1.157 7.781 5.945a2607 2607 0 0 1 2.544 30.31c.371 4.79-3.067 7.88-8.64 7.992-5.572.111-9.178-2.733-8.895-7.606.54-9.29 1.432-18.559 2.203-28.28"/>
  <path fill="#EBEDEA" d="M96.442 282.42c-2.82-7.035-.988-11.351 5.768-13.385 3.278-.987 6.803-1.156 10.127-1.682 2.261 6.962 1.165 12.386-2.843 15.421-3.99 3.023-8.284 3.009-13.052-.354m177.531-3.684c-.302-6.173 3.264-8.815 8.184-10.002 3.02-.73 6.18-.876 9.2-1.273 2.534 8.436.52 14.227-5.551 16.78-5.547 2.334-9.415.661-11.833-5.505"/>
</svg>
